<?xml version="1.0" encoding="utf-8"?>
<!-- Generated by Mocodo 4.3.3 -->
<svg width="636" height="1975" viewBox="0 0 636 1975" xmlns="http://www.w3.org/2000/svg">
<rect x="0" y="0" width="636" height="1975" fill="#FFFFFF" stroke="none" stroke-width="0"/>

<!-- Association A_PROFIL_CLIENT -->
<g>
	<line x1="74" y1="89" x2="74" y2="220" stroke="#000000" stroke-width="1"/>
	<line x1="242" y1="89" x2="74" y2="220" stroke="#000000" stroke-width="1"/>
	<g>
		<path d="M124 194 a14 14 90 0 1 14 14 V220 h-128 V208 a14 14 90 0 1 14 -14" fill="#FFFFFF" stroke="#FFFFFF" stroke-width="0"/>
		<path d="M138 220 v12 a14 14 90 0 1 -14 14 H24 a14 14 90 0 1 -14 -14 V220 H128" fill="#FFFFFF" stroke="#FFFFFF" stroke-width="0"/>
		<rect x="10" y="194" width="128" height="52" fill="none" rx="14" stroke="#000000" stroke-width="1.5"/>
		<line x1="10" y1="220" x2="138" y2="220" stroke="#000000" stroke-width="1"/>
		<text x="17" y="212.6" fill="#000000" font-family="Trebuchet MS" font-size="14">A_PROFIL_CLIENT</text>
	</g>
	<text x="48" y="186" fill="#000000" font-family="Verdana" font-size="12">1,1</text>
	<text x="196.27" y="141" fill="#000000" font-family="Verdana" font-size="12">1,1</text>
</g>

<!-- Association A_PROFIL_VENDEUR -->
<g>
	<line x1="74" y1="89" x2="242" y2="220" stroke="#000000" stroke-width="1"/>
	<line x1="417" y1="89" x2="242" y2="220" stroke="#000000" stroke-width="1"/>
	<g>
		<path d="M300 194 a14 14 90 0 1 14 14 V220 h-144 V208 a14 14 90 0 1 14 -14" fill="#FFFFFF" stroke="#FFFFFF" stroke-width="0"/>
		<path d="M314 220 v12 a14 14 90 0 1 -14 14 H184 a14 14 90 0 1 -14 -14 V220 H144" fill="#FFFFFF" stroke="#FFFFFF" stroke-width="0"/>
		<rect x="170" y="194" width="144" height="52" fill="none" rx="14" stroke="#000000" stroke-width="1.5"/>
		<line x1="170" y1="220" x2="314" y2="220" stroke="#000000" stroke-width="1"/>
		<text x="178" y="212.6" fill="#000000" font-family="Trebuchet MS" font-size="14">A_PROFIL_VENDEUR</text>
	</g>
	<text x="134" y="129.73" fill="#000000" font-family="Verdana" font-size="12">1,1</text>
	<text x="357.57" y="150" fill="#000000" font-family="Verdana" font-size="12">1,1</text>
</g>

<!-- Association A_PROFIL_ADMIN -->
<g>
	<line x1="74" y1="89" x2="417" y2="220" stroke="#000000" stroke-width="1"/>
	<line x1="569" y1="89" x2="417" y2="220" stroke="#000000" stroke-width="1"/>
	<g>
		<path d="M465 194 a14 14 90 0 1 14 14 V220 h-124 V208 a14 14 90 0 1 14 -14" fill="#FFFFFF" stroke="#FFFFFF" stroke-width="0"/>
		<path d="M479 220 v12 a14 14 90 0 1 -14 14 H369 a14 14 90 0 1 -14 -14 V220 H124" fill="#FFFFFF" stroke="#FFFFFF" stroke-width="0"/>
		<rect x="355" y="194" width="124" height="52" fill="none" rx="14" stroke="#000000" stroke-width="1.5"/>
		<line x1="355" y1="220" x2="479" y2="220" stroke="#000000" stroke-width="1"/>
		<text x="362" y="212.6" fill="#000000" font-family="Trebuchet MS" font-size="14">A_PROFIL_ADMIN</text>
	</g>
	<text x="134" y="104.99" fill="#000000" font-family="Verdana" font-size="12">1,1</text>
	<text x="527.06" y="141" fill="#000000" font-family="Verdana" font-size="12">1,1</text>
</g>

<!-- Association SE_DECLINE_EN -->
<g>
	<path d="M74 324 C131.05 298.03 187.05 326.69 242 410" fill="none" stroke="#000000" stroke-width="1"/>
	<path d="M74 324 C85.9 384.58 141.9 413.25 242 410" fill="none" stroke="#000000" stroke-width="1"/>
	<g>
		<path d="M286 384 a14 14 90 0 1 14 14 V410 h-116 V398 a14 14 90 0 1 14 -14" fill="#FFFFFF" stroke="#FFFFFF" stroke-width="0"/>
		<path d="M300 410 v12 a14 14 90 0 1 -14 14 H198 a14 14 90 0 1 -14 -14 V410 H116" fill="#FFFFFF" stroke="#FFFFFF" stroke-width="0"/>
		<rect x="184" y="384" width="116" height="52" fill="none" rx="14" stroke="#000000" stroke-width="1.5"/>
		<line x1="184" y1="410" x2="300" y2="410" stroke="#000000" stroke-width="1"/>
		<text x="192" y="402.6" fill="#000000" font-family="Trebuchet MS" font-size="14">SE_DÉCLINE_EN</text>
	</g>
	<text x="131" y="339.0" fill="#000000" font-family="Verdana" font-size="12">0,N</text>
	<text x="131" y="387.0" fill="#000000" font-family="Verdana" font-size="12">0,1</text>
</g>

<!-- Association POSSEDE -->
<g>
	<line x1="74" y1="515" x2="242" y2="515" stroke="#000000" stroke-width="1"/>
	<line x1="74" y1="89" x2="242" y2="515" stroke="#000000" stroke-width="1"/>
	<g>
		<path d="M264 489 a14 14 90 0 1 14 14 V515 h-72 V503 a14 14 90 0 1 14 -14" fill="#FFFFFF" stroke="#FFFFFF" stroke-width="0"/>
		<path d="M278 515 v12 a14 14 90 0 1 -14 14 H220 a14 14 90 0 1 -14 -14 V515 H72" fill="#FFFFFF" stroke="#FFFFFF" stroke-width="0"/>
		<rect x="206" y="489" width="72" height="52" fill="none" rx="14" stroke="#000000" stroke-width="1.5"/>
		<line x1="206" y1="515" x2="278" y2="515" stroke="#000000" stroke-width="1"/>
		<text x="214" y="507.6" fill="#000000" font-family="Trebuchet MS" font-size="14">POSSÈDE</text>
	</g>
	<text x="123" y="532" fill="#000000" font-family="Verdana" font-size="12">0,N</text>
	<text x="82.64" y="186" fill="#000000" font-family="Verdana" font-size="12">1,1</text>
</g>

<!-- Association CLASSE_DANS -->
<g>
	<line x1="74" y1="515" x2="417" y2="515" stroke="#000000" stroke-width="1"/>
	<line x1="74" y1="324" x2="417" y2="515" stroke="#000000" stroke-width="1"/>
	<g>
		<path d="M454 489 a14 14 90 0 1 14 14 V515 h-102 V503 a14 14 90 0 1 14 -14" fill="#FFFFFF" stroke="#FFFFFF" stroke-width="0"/>
		<path d="M468 515 v12 a14 14 90 0 1 -14 14 H380 a14 14 90 0 1 -14 -14 V515 H102" fill="#FFFFFF" stroke="#FFFFFF" stroke-width="0"/>
		<rect x="366" y="489" width="102" height="52" fill="none" rx="14" stroke="#000000" stroke-width="1.5"/>
		<line x1="366" y1="515" x2="468" y2="515" stroke="#000000" stroke-width="1"/>
		<text x="373" y="507.6" fill="#000000" font-family="Trebuchet MS" font-size="14">CLASSÉ_DANS</text>
	</g>
	<text x="123" y="532" fill="#000000" font-family="Verdana" font-size="12">0,N</text>
	<text x="131" y="349.29" fill="#000000" font-family="Verdana" font-size="12">0,1</text>
</g>

<!-- Association DECLINE -->
<g>
	<line x1="74" y1="664" x2="242" y2="664" stroke="#000000" stroke-width="1"/>
	<line x1="74" y1="515" x2="242" y2="664" stroke="#000000" stroke-width="1"/>
	<g>
		<path d="M262 638 a14 14 90 0 1 14 14 V664 h-68 V652 a14 14 90 0 1 14 -14" fill="#FFFFFF" stroke="#FFFFFF" stroke-width="0"/>
		<path d="M276 664 v12 a14 14 90 0 1 -14 14 H222 a14 14 90 0 1 -14 -14 V664 H68" fill="#FFFFFF" stroke="#FFFFFF" stroke-width="0"/>
		<rect x="208" y="638" width="68" height="52" fill="none" rx="14" stroke="#000000" stroke-width="1.5"/>
		<line x1="208" y1="664" x2="276" y2="664" stroke="#000000" stroke-width="1"/>
		<text x="215" y="656.6" fill="#000000" font-family="Trebuchet MS" font-size="14">DÉCLINE</text>
	</g>
	<text x="135" y="681" fill="#000000" font-family="Verdana" font-size="12">1,N</text>
	<text x="123" y="552.5" fill="#000000" font-family="Verdana" font-size="12">1,1</text>
</g>

<!-- Association COLOREE -->
<g>
	<line x1="74" y1="664" x2="417" y2="664" stroke="#000000" stroke-width="1"/>
	<line x1="242" y1="324" x2="417" y2="664" stroke="#000000" stroke-width="1"/>
	<g>
		<path d="M440 638 a14 14 90 0 1 14 14 V664 h-74 V652 a14 14 90 0 1 14 -14" fill="#FFFFFF" stroke="#FFFFFF" stroke-width="0"/>
		<path d="M454 664 v12 a14 14 90 0 1 -14 14 H394 a14 14 90 0 1 -14 -14 V664 H74" fill="#FFFFFF" stroke="#FFFFFF" stroke-width="0"/>
		<rect x="380" y="638" width="74" height="52" fill="none" rx="14" stroke="#000000" stroke-width="1.5"/>
		<line x1="380" y1="664" x2="454" y2="664" stroke="#000000" stroke-width="1"/>
		<text x="387" y="656.6" fill="#000000" font-family="Trebuchet MS" font-size="14">COLORÉE</text>
	</g>
	<text x="135" y="681" fill="#000000" font-family="Verdana" font-size="12">0,N</text>
	<text x="238.03" y="376" fill="#000000" font-family="Verdana" font-size="12">0,1</text>
</g>

<!-- Association TAILLEE -->
<g>
	<line x1="74" y1="664" x2="569" y2="664" stroke="#000000" stroke-width="1"/>
	<line x1="417" y1="324" x2="569" y2="664" stroke="#000000" stroke-width="1"/>
	<g>
		<path d="M588 638 a14 14 90 0 1 14 14 V664 h-66 V652 a14 14 90 0 1 14 -14" fill="#FFFFFF" stroke="#FFFFFF" stroke-width="0"/>
		<path d="M602 664 v12 a14 14 90 0 1 -14 14 H550 a14 14 90 0 1 -14 -14 V664 H66" fill="#FFFFFF" stroke="#FFFFFF" stroke-width="0"/>
		<rect x="536" y="638" width="66" height="52" fill="none" rx="14" stroke="#000000" stroke-width="1.5"/>
		<line x1="536" y1="664" x2="602" y2="664" stroke="#000000" stroke-width="1"/>
		<text x="543" y="656.6" fill="#000000" font-family="Trebuchet MS" font-size="14">TAILLÉE</text>
	</g>
	<text x="135" y="681" fill="#000000" font-family="Verdana" font-size="12">0,N</text>
	<text x="406.13" y="367" fill="#000000" font-family="Verdana" font-size="12">0,1</text>
</g>

<!-- Association ILLUSTRE_VARIANTE -->
<g>
	<line x1="242" y1="741" x2="417" y2="741" stroke="#000000" stroke-width="1"/>
	<path d="M74 664 C48.17 690.16 162.5 715.83 417 741" fill="none" stroke="#000000" stroke-width="1"/>
	<g>
		<path d="M475 715 a14 14 90 0 1 14 14 V741 h-144 V729 a14 14 90 0 1 14 -14" fill="#FFFFFF" stroke="#FFFFFF" stroke-width="0"/>
		<path d="M489 741 v12 a14 14 90 0 1 -14 14 H359 a14 14 90 0 1 -14 -14 V741 H144" fill="#FFFFFF" stroke="#FFFFFF" stroke-width="0"/>
		<rect x="345" y="715" width="144" height="52" fill="none" rx="14" stroke="#000000" stroke-width="1.5"/>
		<line x1="345" y1="741" x2="489" y2="741" stroke="#000000" stroke-width="1"/>
		<text x="352" y="733.6" fill="#000000" font-family="Trebuchet MS" font-size="14">ILLUSTRE_VARIANTE</text>
	</g>
	<text x="308" y="758" fill="#000000" font-family="Verdana" font-size="12">1,N</text>
	<text x="135" y="693.72" fill="#000000" font-family="Verdana" font-size="12">1,1</text>
</g>

<!-- Association EST_VERSION_NUM -->
<g>
	<line x1="242" y1="827" x2="417" y2="827" stroke="#000000" stroke-width="1"/>
	<line x1="74" y1="515" x2="417" y2="827" stroke="#000000" stroke-width="1"/>
	<g>
		<path d="M471 801 a14 14 90 0 1 14 14 V827 h-136 V815 a14 14 90 0 1 14 -14" fill="#FFFFFF" stroke="#FFFFFF" stroke-width="0"/>
		<path d="M485 827 v12 a14 14 90 0 1 -14 14 H363 a14 14 90 0 1 -14 -14 V827 H136" fill="#FFFFFF" stroke="#FFFFFF" stroke-width="0"/>
		<rect x="349" y="801" width="136" height="52" fill="none" rx="14" stroke="#000000" stroke-width="1.5"/>
		<line x1="349" y1="827" x2="485" y2="827" stroke="#000000" stroke-width="1"/>
		<text x="356" y="819.6" fill="#000000" font-family="Trebuchet MS" font-size="14">EST_VERSION_NUM</text>
	</g>
	<text x="322" y="844" fill="#000000" font-family="Verdana" font-size="12">1,1</text>
	<text x="123" y="553.62" fill="#000000" font-family="Verdana" font-size="12">1,1</text>
</g>

<!-- Association PROMEUT -->
<g>
	<line x1="242" y1="940" x2="417" y2="940" stroke="#000000" stroke-width="1"/>
	<line x1="74" y1="515" x2="417" y2="940" stroke="#000000" stroke-width="1"/>
	<g>
		<path d="M442 914 a14 14 90 0 1 14 14 V940 h-78 V928 a14 14 90 0 1 14 -14" fill="#FFFFFF" stroke="#FFFFFF" stroke-width="0"/>
		<path d="M456 940 v12 a14 14 90 0 1 -14 14 H392 a14 14 90 0 1 -14 -14 V940 H78" fill="#FFFFFF" stroke="#FFFFFF" stroke-width="0"/>
		<rect x="378" y="914" width="78" height="52" fill="none" rx="14" stroke="#000000" stroke-width="1.5"/>
		<line x1="378" y1="940" x2="456" y2="940" stroke="#000000" stroke-width="1"/>
		<text x="386" y="932.6" fill="#000000" font-family="Trebuchet MS" font-size="14">PROMEUT</text>
	</g>
	<text x="291" y="957" fill="#000000" font-family="Verdana" font-size="12">1,N</text>
	<text x="123" y="567.53" fill="#000000" font-family="Verdana" font-size="12">1,1</text>
</g>

<!-- Association ILLUSTRE_PRODUIT -->
<g>
	<line x1="242" y1="1053" x2="417" y2="1053" stroke="#000000" stroke-width="1"/>
	<line x1="74" y1="515" x2="417" y2="1053" stroke="#000000" stroke-width="1"/>
	<g>
		<path d="M472 1027 a14 14 90 0 1 14 14 V1053 h-138 V1041 a14 14 90 0 1 14 -14" fill="#FFFFFF" stroke="#FFFFFF" stroke-width="0"/>
		<path d="M486 1053 v12 a14 14 90 0 1 -14 14 H362 a14 14 90 0 1 -14 -14 V1053 H138" fill="#FFFFFF" stroke="#FFFFFF" stroke-width="0"/>
		<rect x="348" y="1027" width="138" height="52" fill="none" rx="14" stroke="#000000" stroke-width="1.5"/>
		<line x1="348" y1="1053" x2="486" y2="1053" stroke="#000000" stroke-width="1"/>
		<text x="355" y="1045.6" fill="#000000" font-family="Trebuchet MS" font-size="14">ILLUSTRE_PRODUIT</text>
	</g>
	<text x="305" y="1070" fill="#000000" font-family="Verdana" font-size="12">1,N</text>
	<text x="123" y="580.92" fill="#000000" font-family="Verdana" font-size="12">1,1</text>
</g>

<!-- Association EVALUE -->
<g>
	<line x1="74" y1="1139" x2="242" y2="1139" stroke="#000000" stroke-width="1"/>
	<line x1="74" y1="515" x2="242" y2="1139" stroke="#000000" stroke-width="1"/>
	<g>
		<path d="M260 1113 a14 14 90 0 1 14 14 V1139 h-64 V1127 a14 14 90 0 1 14 -14" fill="#FFFFFF" stroke="#FFFFFF" stroke-width="0"/>
		<path d="M274 1139 v12 a14 14 90 0 1 -14 14 H224 a14 14 90 0 1 -14 -14 V1139 H64" fill="#FFFFFF" stroke="#FFFFFF" stroke-width="0"/>
		<rect x="210" y="1113" width="64" height="52" fill="none" rx="14" stroke="#000000" stroke-width="1.5"/>
		<line x1="210" y1="1139" x2="274" y2="1139" stroke="#000000" stroke-width="1"/>
		<text x="217" y="1131.6" fill="#000000" font-family="Trebuchet MS" font-size="14">ÉVALUE</text>
	</g>
	<text x="100" y="1156" fill="#000000" font-family="Verdana" font-size="12">0,N</text>
	<text x="71.62" y="612" fill="#000000" font-family="Verdana" font-size="12">1,1</text>
</g>

<!-- Association REDIGE -->
<g>
	<line x1="74" y1="1139" x2="417" y2="1139" stroke="#000000" stroke-width="1"/>
	<line x1="74" y1="89" x2="417" y2="1139" stroke="#000000" stroke-width="1"/>
	<g>
		<path d="M434 1113 a14 14 90 0 1 14 14 V1139 h-62 V1127 a14 14 90 0 1 14 -14" fill="#FFFFFF" stroke="#FFFFFF" stroke-width="0"/>
		<path d="M448 1139 v12 a14 14 90 0 1 -14 14 H400 a14 14 90 0 1 -14 -14 V1139 H62" fill="#FFFFFF" stroke="#FFFFFF" stroke-width="0"/>
		<rect x="386" y="1113" width="62" height="52" fill="none" rx="14" stroke="#000000" stroke-width="1.5"/>
		<line x1="386" y1="1139" x2="448" y2="1139" stroke="#000000" stroke-width="1"/>
		<text x="394" y="1131.6" fill="#000000" font-family="Trebuchet MS" font-size="14">RÉDIGE</text>
	</g>
	<text x="100" y="1156" fill="#000000" font-family="Verdana" font-size="12">0,N</text>
	<text x="76.68" y="186" fill="#000000" font-family="Verdana" font-size="12">1,1</text>
</g>

<!-- Association A_WISHLIST -->
<g>
	<line x1="74" y1="89" x2="417" y2="1216" stroke="#000000" stroke-width="1"/>
	<line x1="242" y1="1216" x2="417" y2="1216" stroke="#000000" stroke-width="1"/>
	<g>
		<path d="M448 1190 a14 14 90 0 1 14 14 V1216 h-90 V1204 a14 14 90 0 1 14 -14" fill="#FFFFFF" stroke="#FFFFFF" stroke-width="0"/>
		<path d="M462 1216 v12 a14 14 90 0 1 -14 14 H386 a14 14 90 0 1 -14 -14 V1216 H90" fill="#FFFFFF" stroke="#FFFFFF" stroke-width="0"/>
		<rect x="372" y="1190" width="90" height="52" fill="none" rx="14" stroke="#000000" stroke-width="1.5"/>
		<line x1="372" y1="1216" x2="462" y2="1216" stroke="#000000" stroke-width="1"/>
		<text x="379" y="1208.6" fill="#000000" font-family="Trebuchet MS" font-size="14">A_WISHLIST</text>
	</g>
	<text x="74.71" y="186" fill="#000000" font-family="Verdana" font-size="12">1,1</text>
	<text x="305" y="1233" fill="#000000" font-family="Verdana" font-size="12">1,1</text>
</g>

<!-- Association CONTIENT_SOUHAIT -->
<g>
	<line x1="74" y1="1293" x2="242" y2="1293" stroke="#000000" stroke-width="1"/>
	<line x1="242" y1="1216" x2="242" y2="1293" stroke="#000000" stroke-width="1"/>
	<g>
		<path d="M300 1267 a14 14 90 0 1 14 14 V1293 h-144 V1281 a14 14 90 0 1 14 -14" fill="#FFFFFF" stroke="#FFFFFF" stroke-width="0"/>
		<path d="M314 1293 v12 a14 14 90 0 1 -14 14 H184 a14 14 90 0 1 -14 -14 V1293 H144" fill="#FFFFFF" stroke="#FFFFFF" stroke-width="0"/>
		<rect x="170" y="1267" width="144" height="52" fill="none" rx="14" stroke="#000000" stroke-width="1.5"/>
		<line x1="170" y1="1293" x2="314" y2="1293" stroke="#000000" stroke-width="1"/>
		<text x="177" y="1285.6" fill="#000000" font-family="Trebuchet MS" font-size="14">CONTIENT_SOUHAIT</text>
	</g>
	<text x="143" y="1310" fill="#000000" font-family="Verdana" font-size="12">0,N</text>
	<text x="247" y="1259" fill="#000000" font-family="Verdana" font-size="12">1,1</text>
</g>

<!-- Association SOUHAITE -->
<g>
	<line x1="74" y1="1293" x2="417" y2="1293" stroke="#000000" stroke-width="1"/>
	<line x1="74" y1="515" x2="417" y2="1293" stroke="#000000" stroke-width="1"/>
	<g>
		<path d="M443 1267 a14 14 90 0 1 14 14 V1293 h-80 V1281 a14 14 90 0 1 14 -14" fill="#FFFFFF" stroke="#FFFFFF" stroke-width="0"/>
		<path d="M457 1293 v12 a14 14 90 0 1 -14 14 H391 a14 14 90 0 1 -14 -14 V1293 H80" fill="#FFFFFF" stroke="#FFFFFF" stroke-width="0"/>
		<rect x="377" y="1267" width="80" height="52" fill="none" rx="14" stroke="#000000" stroke-width="1.5"/>
		<line x1="377" y1="1293" x2="457" y2="1293" stroke="#000000" stroke-width="1"/>
		<text x="385" y="1285.6" fill="#000000" font-family="Trebuchet MS" font-size="14">SOUHAITE</text>
	</g>
	<text x="143" y="1310" fill="#000000" font-family="Verdana" font-size="12">0,N</text>
	<text x="86.72" y="612" fill="#000000" font-family="Verdana" font-size="12">1,1</text>
</g>

<!-- Association CONSULTE -->
<g>
	<line x1="74" y1="1370" x2="242" y2="1370" stroke="#000000" stroke-width="1"/>
	<line x1="74" y1="89" x2="242" y2="1370" stroke="#000000" stroke-width="1"/>
	<g>
		<path d="M269 1344 a14 14 90 0 1 14 14 V1370 h-82 V1358 a14 14 90 0 1 14 -14" fill="#FFFFFF" stroke="#FFFFFF" stroke-width="0"/>
		<path d="M283 1370 v12 a14 14 90 0 1 -14 14 H215 a14 14 90 0 1 -14 -14 V1370 H82" fill="#FFFFFF" stroke="#FFFFFF" stroke-width="0"/>
		<rect x="201" y="1344" width="82" height="52" fill="none" rx="14" stroke="#000000" stroke-width="1.5"/>
		<line x1="201" y1="1370" x2="283" y2="1370" stroke="#000000" stroke-width="1"/>
		<text x="208" y="1362.6" fill="#000000" font-family="Trebuchet MS" font-size="14">CONSULTE</text>
	</g>
	<text x="129" y="1387" fill="#000000" font-family="Verdana" font-size="12">0,N</text>
	<text x="59.47" y="186" fill="#000000" font-family="Verdana" font-size="12">1,1</text>
</g>

<!-- Association EST_CONSULTE -->
<g>
	<line x1="74" y1="1370" x2="417" y2="1370" stroke="#000000" stroke-width="1"/>
	<line x1="74" y1="515" x2="417" y2="1370" stroke="#000000" stroke-width="1"/>
	<g>
		<path d="M459 1344 a14 14 90 0 1 14 14 V1370 h-112 V1358 a14 14 90 0 1 14 -14" fill="#FFFFFF" stroke="#FFFFFF" stroke-width="0"/>
		<path d="M473 1370 v12 a14 14 90 0 1 -14 14 H375 a14 14 90 0 1 -14 -14 V1370 H112" fill="#FFFFFF" stroke="#FFFFFF" stroke-width="0"/>
		<rect x="361" y="1344" width="112" height="52" fill="none" rx="14" stroke="#000000" stroke-width="1.5"/>
		<line x1="361" y1="1370" x2="473" y2="1370" stroke="#000000" stroke-width="1"/>
		<text x="368" y="1362.6" fill="#000000" font-family="Trebuchet MS" font-size="14">EST_CONSULTÉ</text>
	</g>
	<text x="129" y="1387" fill="#000000" font-family="Verdana" font-size="12">0,N</text>
	<text x="83.23" y="612" fill="#000000" font-family="Verdana" font-size="12">1,1</text>
</g>

<!-- Association A_PANIER -->
<g>
	<line x1="242" y1="1447" x2="417" y2="1447" stroke="#000000" stroke-width="1"/>
	<line x1="74" y1="89" x2="417" y2="1447" stroke="#000000" stroke-width="1"/>
	<g>
		<path d="M442 1421 a14 14 90 0 1 14 14 V1447 h-78 V1435 a14 14 90 0 1 14 -14" fill="#FFFFFF" stroke="#FFFFFF" stroke-width="0"/>
		<path d="M456 1447 v12 a14 14 90 0 1 -14 14 H392 a14 14 90 0 1 -14 -14 V1447 H78" fill="#FFFFFF" stroke="#FFFFFF" stroke-width="0"/>
		<rect x="378" y="1421" width="78" height="52" fill="none" rx="14" stroke="#000000" stroke-width="1.5"/>
		<line x1="378" y1="1447" x2="456" y2="1447" stroke="#000000" stroke-width="1"/>
		<text x="386" y="1439.6" fill="#000000" font-family="Trebuchet MS" font-size="14">A_PANIER</text>
	</g>
	<text x="276" y="1464" fill="#000000" font-family="Verdana" font-size="12">0,N</text>
	<text x="70.15" y="186" fill="#000000" font-family="Verdana" font-size="12">0,1</text>
</g>

<!-- Association DANS_PANIER -->
<g>
	<line x1="74" y1="1524" x2="242" y2="1524" stroke="#000000" stroke-width="1"/>
	<line x1="242" y1="1447" x2="242" y2="1524" stroke="#000000" stroke-width="1"/>
	<g>
		<path d="M279 1498 a14 14 90 0 1 14 14 V1524 h-102 V1512 a14 14 90 0 1 14 -14" fill="#FFFFFF" stroke="#FFFFFF" stroke-width="0"/>
		<path d="M293 1524 v12 a14 14 90 0 1 -14 14 H205 a14 14 90 0 1 -14 -14 V1524 H102" fill="#FFFFFF" stroke="#FFFFFF" stroke-width="0"/>
		<rect x="191" y="1498" width="102" height="52" fill="none" rx="14" stroke="#000000" stroke-width="1.5"/>
		<line x1="191" y1="1524" x2="293" y2="1524" stroke="#000000" stroke-width="1"/>
		<text x="199" y="1516.6" fill="#000000" font-family="Trebuchet MS" font-size="14">DANS_PANIER</text>
	</g>
	<text x="138" y="1541" fill="#000000" font-family="Verdana" font-size="12">0,N</text>
	<text x="247" y="1490" fill="#000000" font-family="Verdana" font-size="12">1,1</text>
</g>

<!-- Association AJOUTE_AU_PANIER -->
<g>
	<line x1="74" y1="1524" x2="417" y2="1524" stroke="#000000" stroke-width="1"/>
	<line x1="74" y1="515" x2="417" y2="1524" stroke="#000000" stroke-width="1"/>
	<g>
		<path d="M475 1498 a14 14 90 0 1 14 14 V1524 h-144 V1512 a14 14 90 0 1 14 -14" fill="#FFFFFF" stroke="#FFFFFF" stroke-width="0"/>
		<path d="M489 1524 v12 a14 14 90 0 1 -14 14 H359 a14 14 90 0 1 -14 -14 V1524 H144" fill="#FFFFFF" stroke="#FFFFFF" stroke-width="0"/>
		<rect x="345" y="1498" width="144" height="52" fill="none" rx="14" stroke="#000000" stroke-width="1.5"/>
		<line x1="345" y1="1524" x2="489" y2="1524" stroke="#000000" stroke-width="1"/>
		<text x="352" y="1516.6" fill="#000000" font-family="Trebuchet MS" font-size="14">AJOUTÉ_AU_PANIER</text>
	</g>
	<text x="138" y="1541" fill="#000000" font-family="Verdana" font-size="12">0,N</text>
	<text x="77.85" y="612" fill="#000000" font-family="Verdana" font-size="12">1,1</text>
</g>

<!-- Association PASSE -->
<g>
	<line x1="242" y1="1619" x2="417" y2="1619" stroke="#000000" stroke-width="1"/>
	<line x1="74" y1="89" x2="417" y2="1619" stroke="#000000" stroke-width="1"/>
	<g>
		<path d="M430 1593 a14 14 90 0 1 14 14 V1619 h-54 V1607 a14 14 90 0 1 14 -14" fill="#FFFFFF" stroke="#FFFFFF" stroke-width="0"/>
		<path d="M444 1619 v12 a14 14 90 0 1 -14 14 H404 a14 14 90 0 1 -14 -14 V1619 H54" fill="#FFFFFF" stroke="#FFFFFF" stroke-width="0"/>
		<rect x="390" y="1593" width="54" height="52" fill="none" rx="14" stroke="#000000" stroke-width="1.5"/>
		<line x1="390" y1="1619" x2="444" y2="1619" stroke="#000000" stroke-width="1"/>
		<text x="398" y="1611.6" fill="#000000" font-family="Trebuchet MS" font-size="14">PASSE</text>
	</g>
	<text x="306" y="1636" fill="#000000" font-family="Verdana" font-size="12">0,N</text>
	<text x="67.65" y="186" fill="#000000" font-family="Verdana" font-size="12">0,1</text>
</g>

<!-- Association DANS_COMMANDE -->
<g>
	<line x1="74" y1="1714" x2="242" y2="1714" stroke="#000000" stroke-width="1"/>
	<line x1="242" y1="1619" x2="242" y2="1714" stroke="#000000" stroke-width="1"/>
	<g>
		<path d="M293 1688 a14 14 90 0 1 14 14 V1714 h-130 V1702 a14 14 90 0 1 14 -14" fill="#FFFFFF" stroke="#FFFFFF" stroke-width="0"/>
		<path d="M307 1714 v12 a14 14 90 0 1 -14 14 H191 a14 14 90 0 1 -14 -14 V1714 H130" fill="#FFFFFF" stroke="#FFFFFF" stroke-width="0"/>
		<rect x="177" y="1688" width="130" height="52" fill="none" rx="14" stroke="#000000" stroke-width="1.5"/>
		<line x1="177" y1="1714" x2="307" y2="1714" stroke="#000000" stroke-width="1"/>
		<text x="185" y="1706.6" fill="#000000" font-family="Trebuchet MS" font-size="14">DANS_COMMANDE</text>
	</g>
	<text x="144" y="1731" fill="#000000" font-family="Verdana" font-size="12">0,N</text>
	<text x="247" y="1680" fill="#000000" font-family="Verdana" font-size="12">1,1</text>
</g>

<!-- Association REFERE_PRODUIT -->
<g>
	<line x1="74" y1="1714" x2="417" y2="1714" stroke="#000000" stroke-width="1"/>
	<line x1="74" y1="515" x2="417" y2="1714" stroke="#000000" stroke-width="1"/>
	<g>
		<path d="M466 1688 a14 14 90 0 1 14 14 V1714 h-126 V1702 a14 14 90 0 1 14 -14" fill="#FFFFFF" stroke="#FFFFFF" stroke-width="0"/>
		<path d="M480 1714 v12 a14 14 90 0 1 -14 14 H368 a14 14 90 0 1 -14 -14 V1714 H126" fill="#FFFFFF" stroke="#FFFFFF" stroke-width="0"/>
		<rect x="354" y="1688" width="126" height="52" fill="none" rx="14" stroke="#000000" stroke-width="1.5"/>
		<line x1="354" y1="1714" x2="480" y2="1714" stroke="#000000" stroke-width="1"/>
		<text x="361" y="1706.6" fill="#000000" font-family="Trebuchet MS" font-size="14">RÉFÈRE_PRODUIT</text>
	</g>
	<text x="144" y="1731" fill="#000000" font-family="Verdana" font-size="12">0,N</text>
	<text x="73.1" y="612" fill="#000000" font-family="Verdana" font-size="12">0,1</text>
</g>

<!-- Association REGLE -->
<g>
	<line x1="242" y1="1809" x2="417" y2="1809" stroke="#000000" stroke-width="1"/>
	<line x1="74" y1="89" x2="417" y2="1809" stroke="#000000" stroke-width="1"/>
	<g>
		<path d="M431 1783 a14 14 90 0 1 14 14 V1809 h-56 V1797 a14 14 90 0 1 14 -14" fill="#FFFFFF" stroke="#FFFFFF" stroke-width="0"/>
		<path d="M445 1809 v12 a14 14 90 0 1 -14 14 H403 a14 14 90 0 1 -14 -14 V1809 H56" fill="#FFFFFF" stroke="#FFFFFF" stroke-width="0"/>
		<rect x="389" y="1783" width="56" height="52" fill="none" rx="14" stroke="#000000" stroke-width="1.5"/>
		<line x1="389" y1="1809" x2="445" y2="1809" stroke="#000000" stroke-width="1"/>
		<text x="396" y="1801.6" fill="#000000" font-family="Trebuchet MS" font-size="14">RÈGLE</text>
	</g>
	<text x="285" y="1826" fill="#000000" font-family="Verdana" font-size="12">0,N</text>
	<text x="65.47" y="186" fill="#000000" font-family="Verdana" font-size="12">0,1</text>
</g>

<!-- Entity UTILISATEUR -->
<g>
	<g>
		<rect x="19" y="9" width="110" height="26" fill="#FFFFFF" stroke="none" stroke-width="0" opacity="1"/>
		<rect x="19" y="35" width="110" height="134" fill="#FFFFFF" stroke="none" stroke-width="0" opacity="1"/>
		<rect x="19" y="9" width="110" height="160" fill="none" stroke="#000000" stroke-width="1.5" opacity="1"/>
		<line x1="19" y1="35" x2="129" y2="35" stroke="#000000" stroke-width="1"/>
	</g>
	<text x="33" y="27.6" fill="#000000" font-family="Trebuchet MS" font-size="14">UTILISATEUR</text>
	<text x="24" y="53.6" fill="#000000" font-family="Trebuchet MS" font-size="14">identifiant</text>
	<line x1="24" y1="56" x2="93" y2="56" stroke="#000000" stroke-width="1"/>
	<text x="24" y="71.6" fill="#000000" font-family="Trebuchet MS" font-size="14">nom utilisateur</text>
	<text x="24" y="89.6" fill="#000000" font-family="Trebuchet MS" font-size="14">email</text>
	<text x="24" y="107.6" fill="#000000" font-family="Trebuchet MS" font-size="14">type utilisateur</text>
	<text x="24" y="125.6" fill="#000000" font-family="Trebuchet MS" font-size="14">téléphone</text>
	<text x="24" y="143.6" fill="#000000" font-family="Trebuchet MS" font-size="14">pays</text>
	<text x="24" y="161.6" fill="#000000" font-family="Trebuchet MS" font-size="14">ville</text>
</g>

<!-- Entity PROFIL_CLIENT -->
<g>
	<g>
		<rect x="188" y="54" width="108" height="26" fill="#FFFFFF" stroke="none" stroke-width="0" opacity="1"/>
		<rect x="188" y="80" width="108" height="44" fill="#FFFFFF" stroke="none" stroke-width="0" opacity="1"/>
		<rect x="188" y="54" width="108" height="70" fill="none" stroke="#000000" stroke-width="1.5" opacity="1"/>
		<line x1="188" y1="80" x2="296" y2="80" stroke="#000000" stroke-width="1"/>
	</g>
	<text x="193" y="72.6" fill="#000000" font-family="Trebuchet MS" font-size="14">PROFIL_CLIENT</text>
	<text x="193" y="98.6" fill="#000000" font-family="Trebuchet MS" font-size="14">adresse</text>
	<line x1="193" y1="101" x2="243" y2="101" stroke="#000000" stroke-width="1"/>
	<text x="193" y="116.6" fill="#000000" font-family="Trebuchet MS" font-size="14">points fidélité</text>
</g>

<!-- Entity PROFIL_VENDEUR -->
<g>
	<g>
		<rect x="355" y="45" width="124" height="26" fill="#FFFFFF" stroke="none" stroke-width="0" opacity="1"/>
		<rect x="355" y="71" width="124" height="62" fill="#FFFFFF" stroke="none" stroke-width="0" opacity="1"/>
		<rect x="355" y="45" width="124" height="88" fill="none" stroke="#000000" stroke-width="1.5" opacity="1"/>
		<line x1="355" y1="71" x2="479" y2="71" stroke="#000000" stroke-width="1"/>
	</g>
	<text x="361" y="63.6" fill="#000000" font-family="Trebuchet MS" font-size="14">PROFIL_VENDEUR</text>
	<text x="360" y="89.6" fill="#000000" font-family="Trebuchet MS" font-size="14">nom commercial</text>
	<line x1="360" y1="92" x2="468" y2="92" stroke="#000000" stroke-width="1"/>
	<text x="360" y="107.6" fill="#000000" font-family="Trebuchet MS" font-size="14">email pro</text>
	<text x="360" y="125.6" fill="#000000" font-family="Trebuchet MS" font-size="14">vérifié</text>
</g>

<!-- Entity PROFIL_ADMIN -->
<g>
	<g>
		<rect x="511" y="54" width="116" height="26" fill="#FFFFFF" stroke="none" stroke-width="0" opacity="1"/>
		<rect x="511" y="80" width="116" height="44" fill="#FFFFFF" stroke="none" stroke-width="0" opacity="1"/>
		<rect x="511" y="54" width="116" height="70" fill="none" stroke="#000000" stroke-width="1.5" opacity="1"/>
		<line x1="511" y1="80" x2="627" y2="80" stroke="#000000" stroke-width="1"/>
	</g>
	<text x="522" y="72.6" fill="#000000" font-family="Trebuchet MS" font-size="14">PROFIL_ADMIN</text>
	<text x="516" y="98.6" fill="#000000" font-family="Trebuchet MS" font-size="14">gère utilisateurs</text>
	<line x1="516" y1="101" x2="622" y2="101" stroke="#000000" stroke-width="1"/>
	<text x="516" y="116.6" fill="#000000" font-family="Trebuchet MS" font-size="14">gère paiements</text>
</g>

<!-- Entity CATEGORIE -->
<g>
	<g>
		<rect x="22" y="271" width="104" height="26" fill="#FFFFFF" stroke="none" stroke-width="0" opacity="1"/>
		<rect x="22" y="297" width="104" height="80" fill="#FFFFFF" stroke="none" stroke-width="0" opacity="1"/>
		<rect x="22" y="271" width="104" height="106" fill="none" stroke="#000000" stroke-width="1.5" opacity="1"/>
		<line x1="22" y1="297" x2="126" y2="297" stroke="#000000" stroke-width="1"/>
	</g>
	<text x="38" y="289.6" fill="#000000" font-family="Trebuchet MS" font-size="14">CATÉGORIE</text>
	<text x="27" y="315.6" fill="#000000" font-family="Trebuchet MS" font-size="14">nom catégorie</text>
	<line x1="27" y1="318" x2="120" y2="318" stroke="#000000" stroke-width="1"/>
	<text x="27" y="333.6" fill="#000000" font-family="Trebuchet MS" font-size="14">slug catégorie</text>
	<text x="27" y="351.6" fill="#000000" font-family="Trebuchet MS" font-size="14">actif</text>
	<text x="27" y="369.6" fill="#000000" font-family="Trebuchet MS" font-size="14">quotidien</text>
</g>

<!-- Entity COULEUR -->
<g>
	<g>
		<rect x="196" y="289" width="92" height="26" fill="#FFFFFF" stroke="none" stroke-width="0" opacity="1"/>
		<rect x="196" y="315" width="92" height="44" fill="#FFFFFF" stroke="none" stroke-width="0" opacity="1"/>
		<rect x="196" y="289" width="92" height="70" fill="none" stroke="#000000" stroke-width="1.5" opacity="1"/>
		<line x1="196" y1="315" x2="288" y2="315" stroke="#000000" stroke-width="1"/>
	</g>
	<text x="212" y="307.6" fill="#000000" font-family="Trebuchet MS" font-size="14">COULEUR</text>
	<text x="201" y="333.6" fill="#000000" font-family="Trebuchet MS" font-size="14">nom couleur</text>
	<line x1="201" y1="336" x2="282" y2="336" stroke="#000000" stroke-width="1"/>
	<text x="201" y="351.6" fill="#000000" font-family="Trebuchet MS" font-size="14">code hexa</text>
</g>

<!-- Entity TAILLE -->
<g>
	<g>
		<rect x="378" y="298" width="78" height="26" fill="#FFFFFF" stroke="none" stroke-width="0" opacity="1"/>
		<rect x="378" y="324" width="78" height="26" fill="#FFFFFF" stroke="none" stroke-width="0" opacity="1"/>
		<rect x="378" y="298" width="78" height="52" fill="none" stroke="#000000" stroke-width="1.5" opacity="1"/>
		<line x1="378" y1="324" x2="456" y2="324" stroke="#000000" stroke-width="1"/>
	</g>
	<text x="395" y="316.6" fill="#000000" font-family="Trebuchet MS" font-size="14">TAILLE</text>
	<text x="383" y="342.6" fill="#000000" font-family="Trebuchet MS" font-size="14">nom taille</text>
	<line x1="383" y1="345" x2="450" y2="345" stroke="#000000" stroke-width="1"/>
</g>

<!-- Entity PRODUIT -->
<g>
	<g>
		<rect x="30" y="435" width="88" height="26" fill="#FFFFFF" stroke="none" stroke-width="0" opacity="1"/>
		<rect x="30" y="461" width="88" height="134" fill="#FFFFFF" stroke="none" stroke-width="0" opacity="1"/>
		<rect x="30" y="435" width="88" height="160" fill="none" stroke="#000000" stroke-width="1.5" opacity="1"/>
		<line x1="30" y1="461" x2="118" y2="461" stroke="#000000" stroke-width="1"/>
	</g>
	<text x="45" y="453.6" fill="#000000" font-family="Trebuchet MS" font-size="14">PRODUIT</text>
	<text x="35" y="479.6" fill="#000000" font-family="Trebuchet MS" font-size="14">titre</text>
	<line x1="35" y1="482" x2="65" y2="482" stroke="#000000" stroke-width="1"/>
	<text x="35" y="497.6" fill="#000000" font-family="Trebuchet MS" font-size="14">slug produit</text>
	<text x="35" y="515.6" fill="#000000" font-family="Trebuchet MS" font-size="14">prix</text>
	<text x="35" y="533.6" fill="#000000" font-family="Trebuchet MS" font-size="14">devise</text>
	<text x="35" y="551.6" fill="#000000" font-family="Trebuchet MS" font-size="14">remise %</text>
	<text x="35" y="569.6" fill="#000000" font-family="Trebuchet MS" font-size="14">stock</text>
	<text x="35" y="587.6" fill="#000000" font-family="Trebuchet MS" font-size="14">approuvé</text>
</g>

<!-- Entity VARIANTE -->
<g>
	<g>
		<rect x="18" y="620" width="112" height="26" fill="#FFFFFF" stroke="none" stroke-width="0" opacity="1"/>
		<rect x="18" y="646" width="112" height="62" fill="#FFFFFF" stroke="none" stroke-width="0" opacity="1"/>
		<rect x="18" y="620" width="112" height="88" fill="none" stroke="#000000" stroke-width="1.5" opacity="1"/>
		<line x1="18" y1="646" x2="130" y2="646" stroke="#000000" stroke-width="1"/>
	</g>
	<text x="42" y="638.6" fill="#000000" font-family="Trebuchet MS" font-size="14">VARIANTE</text>
	<text x="23" y="664.6" fill="#000000" font-family="Trebuchet MS" font-size="14">prix variante</text>
	<line x1="23" y1="667" x2="106" y2="667" stroke="#000000" stroke-width="1"/>
	<text x="23" y="682.6" fill="#000000" font-family="Trebuchet MS" font-size="14">remise variante</text>
	<text x="23" y="700.6" fill="#000000" font-family="Trebuchet MS" font-size="14">stock variante</text>
</g>

<!-- Entity IMAGE_VARIANTE -->
<g>
	<g>
		<rect x="181" y="715" width="122" height="26" fill="#FFFFFF" stroke="none" stroke-width="0" opacity="1"/>
		<rect x="181" y="741" width="122" height="26" fill="#FFFFFF" stroke="none" stroke-width="0" opacity="1"/>
		<rect x="181" y="715" width="122" height="52" fill="none" stroke="#000000" stroke-width="1.5" opacity="1"/>
		<line x1="181" y1="741" x2="303" y2="741" stroke="#000000" stroke-width="1"/>
	</g>
	<text x="187" y="733.6" fill="#000000" font-family="Trebuchet MS" font-size="14">IMAGE_VARIANTE</text>
	<text x="186" y="759.6" fill="#000000" font-family="Trebuchet MS" font-size="14">image variante</text>
	<line x1="186" y1="762" x2="283" y2="762" stroke="#000000" stroke-width="1"/>
</g>

<!-- Entity PRODUIT_NUMERIQUE -->
<g>
	<g>
		<rect x="167" y="792" width="150" height="26" fill="#FFFFFF" stroke="none" stroke-width="0" opacity="1"/>
		<rect x="167" y="818" width="150" height="44" fill="#FFFFFF" stroke="none" stroke-width="0" opacity="1"/>
		<rect x="167" y="792" width="150" height="70" fill="none" stroke="#000000" stroke-width="1.5" opacity="1"/>
		<line x1="167" y1="818" x2="317" y2="818" stroke="#000000" stroke-width="1"/>
	</g>
	<text x="172" y="810.6" fill="#000000" font-family="Trebuchet MS" font-size="14">PRODUIT_NUMÉRIQUE</text>
	<text x="172" y="836.6" fill="#000000" font-family="Trebuchet MS" font-size="14">fichier</text>
	<line x1="172" y1="839" x2="215" y2="839" stroke="#000000" stroke-width="1"/>
	<text x="172" y="854.6" fill="#000000" font-family="Trebuchet MS" font-size="14">clé licence</text>
</g>

<!-- Entity PUBLICITE -->
<g>
	<g>
		<rect x="198" y="887" width="88" height="26" fill="#FFFFFF" stroke="none" stroke-width="0" opacity="1"/>
		<rect x="198" y="913" width="88" height="80" fill="#FFFFFF" stroke="none" stroke-width="0" opacity="1"/>
		<rect x="198" y="887" width="88" height="106" fill="none" stroke="#000000" stroke-width="1.5" opacity="1"/>
		<line x1="198" y1="913" x2="286" y2="913" stroke="#000000" stroke-width="1"/>
	</g>
	<text x="209" y="905.6" fill="#000000" font-family="Trebuchet MS" font-size="14">PUBLICITÉ</text>
	<text x="203" y="931.6" fill="#000000" font-family="Trebuchet MS" font-size="14">titre pub</text>
	<line x1="203" y1="934" x2="261" y2="934" stroke="#000000" stroke-width="1"/>
	<text x="203" y="949.6" fill="#000000" font-family="Trebuchet MS" font-size="14">priorité pub</text>
	<text x="203" y="967.6" fill="#000000" font-family="Trebuchet MS" font-size="14">clics</text>
	<text x="203" y="985.6" fill="#000000" font-family="Trebuchet MS" font-size="14">vues pub</text>
</g>

<!-- Entity IMAGE_PRODUIT -->
<g>
	<g>
		<rect x="184" y="1018" width="116" height="26" fill="#FFFFFF" stroke="none" stroke-width="0" opacity="1"/>
		<rect x="184" y="1044" width="116" height="44" fill="#FFFFFF" stroke="none" stroke-width="0" opacity="1"/>
		<rect x="184" y="1018" width="116" height="70" fill="none" stroke="#000000" stroke-width="1.5" opacity="1"/>
		<line x1="184" y1="1044" x2="300" y2="1044" stroke="#000000" stroke-width="1"/>
	</g>
	<text x="190" y="1036.6" fill="#000000" font-family="Trebuchet MS" font-size="14">IMAGE_PRODUIT</text>
	<text x="189" y="1062.6" fill="#000000" font-family="Trebuchet MS" font-size="14">image produit</text>
	<line x1="189" y1="1065" x2="280" y2="1065" stroke="#000000" stroke-width="1"/>
	<text x="189" y="1080.6" fill="#000000" font-family="Trebuchet MS" font-size="14">principale</text>
</g>

<!-- Entity AVIS -->
<g>
	<g>
		<rect x="53" y="1104" width="42" height="26" fill="#FFFFFF" stroke="none" stroke-width="0" opacity="1"/>
		<rect x="53" y="1130" width="42" height="44" fill="#FFFFFF" stroke="none" stroke-width="0" opacity="1"/>
		<rect x="53" y="1104" width="42" height="70" fill="none" stroke="#000000" stroke-width="1.5" opacity="1"/>
		<line x1="53" y1="1130" x2="95" y2="1130" stroke="#000000" stroke-width="1"/>
	</g>
	<text x="60" y="1122.6" fill="#000000" font-family="Trebuchet MS" font-size="14">AVIS</text>
	<text x="58" y="1148.6" fill="#000000" font-family="Trebuchet MS" font-size="14">note</text>
	<line x1="58" y1="1151" x2="88" y2="1151" stroke="#000000" stroke-width="1"/>
	<text x="58" y="1166.6" fill="#000000" font-family="Trebuchet MS" font-size="14">aimé</text>
</g>

<!-- Entity LISTE_SOUHAITS -->
<g>
	<g>
		<rect x="184" y="1190" width="116" height="26" fill="#FFFFFF" stroke="none" stroke-width="0" opacity="1"/>
		<rect x="184" y="1216" width="116" height="26" fill="#FFFFFF" stroke="none" stroke-width="0" opacity="1"/>
		<rect x="184" y="1190" width="116" height="52" fill="none" stroke="#000000" stroke-width="1.5" opacity="1"/>
		<line x1="184" y1="1216" x2="300" y2="1216" stroke="#000000" stroke-width="1"/>
	</g>
	<text x="189" y="1208.6" fill="#000000" font-family="Trebuchet MS" font-size="14">LISTE_SOUHAITS</text>
	<text x="189" y="1234.6" fill="#000000" font-family="Trebuchet MS" font-size="14">créée le</text>
	<line x1="189" y1="1237" x2="243" y2="1237" stroke="#000000" stroke-width="1"/>
</g>

<!-- Entity ARTICLE_SOUHAIT -->
<g>
	<g>
		<rect x="10" y="1267" width="128" height="26" fill="#FFFFFF" stroke="none" stroke-width="0" opacity="1"/>
		<rect x="10" y="1293" width="128" height="26" fill="#FFFFFF" stroke="none" stroke-width="0" opacity="1"/>
		<rect x="10" y="1267" width="128" height="52" fill="none" stroke="#000000" stroke-width="1.5" opacity="1"/>
		<line x1="10" y1="1293" x2="138" y2="1293" stroke="#000000" stroke-width="1"/>
	</g>
	<text x="16" y="1285.6" fill="#000000" font-family="Trebuchet MS" font-size="14">ARTICLE_SOUHAIT</text>
	<text x="15" y="1311.6" fill="#000000" font-family="Trebuchet MS" font-size="14">ajouté le</text>
	<line x1="15" y1="1314" x2="74" y2="1314" stroke="#000000" stroke-width="1"/>
</g>

<!-- Entity VUE_PRODUIT -->
<g>
	<g>
		<rect x="24" y="1344" width="100" height="26" fill="#FFFFFF" stroke="none" stroke-width="0" opacity="1"/>
		<rect x="24" y="1370" width="100" height="26" fill="#FFFFFF" stroke="none" stroke-width="0" opacity="1"/>
		<rect x="24" y="1344" width="100" height="52" fill="none" stroke="#000000" stroke-width="1.5" opacity="1"/>
		<line x1="24" y1="1370" x2="124" y2="1370" stroke="#000000" stroke-width="1"/>
	</g>
	<text x="29" y="1362.6" fill="#000000" font-family="Trebuchet MS" font-size="14">VUE_PRODUIT</text>
	<text x="29" y="1388.6" fill="#000000" font-family="Trebuchet MS" font-size="14">vu le</text>
	<line x1="29" y1="1391" x2="61" y2="1391" stroke="#000000" stroke-width="1"/>
</g>

<!-- Entity PANIER -->
<g>
	<g>
		<rect x="213" y="1421" width="58" height="26" fill="#FFFFFF" stroke="none" stroke-width="0" opacity="1"/>
		<rect x="213" y="1447" width="58" height="26" fill="#FFFFFF" stroke="none" stroke-width="0" opacity="1"/>
		<rect x="213" y="1421" width="58" height="52" fill="none" stroke="#000000" stroke-width="1.5" opacity="1"/>
		<line x1="213" y1="1447" x2="271" y2="1447" stroke="#000000" stroke-width="1"/>
	</g>
	<text x="219" y="1439.6" fill="#000000" font-family="Trebuchet MS" font-size="14">PANIER</text>
	<text x="218" y="1465.6" fill="#000000" font-family="Trebuchet MS" font-size="14">créé le</text>
	<line x1="218" y1="1468" x2="264" y2="1468" stroke="#000000" stroke-width="1"/>
</g>

<!-- Entity ARTICLE_PANIER -->
<g>
	<g>
		<rect x="15" y="1498" width="118" height="26" fill="#FFFFFF" stroke="none" stroke-width="0" opacity="1"/>
		<rect x="15" y="1524" width="118" height="26" fill="#FFFFFF" stroke="none" stroke-width="0" opacity="1"/>
		<rect x="15" y="1498" width="118" height="52" fill="none" stroke="#000000" stroke-width="1.5" opacity="1"/>
		<line x1="15" y1="1524" x2="133" y2="1524" stroke="#000000" stroke-width="1"/>
	</g>
	<text x="21" y="1516.6" fill="#000000" font-family="Trebuchet MS" font-size="14">ARTICLE_PANIER</text>
	<text x="20" y="1542.6" fill="#000000" font-family="Trebuchet MS" font-size="14">quantité panier</text>
	<line x1="20" y1="1545" x2="121" y2="1545" stroke="#000000" stroke-width="1"/>
</g>

<!-- Entity COMMANDE -->
<g>
	<g>
		<rect x="183" y="1575" width="118" height="26" fill="#FFFFFF" stroke="none" stroke-width="0" opacity="1"/>
		<rect x="183" y="1601" width="118" height="62" fill="#FFFFFF" stroke="none" stroke-width="0" opacity="1"/>
		<rect x="183" y="1575" width="118" height="88" fill="none" stroke="#000000" stroke-width="1.5" opacity="1"/>
		<line x1="183" y1="1601" x2="301" y2="1601" stroke="#000000" stroke-width="1"/>
	</g>
	<text x="205" y="1593.6" fill="#000000" font-family="Trebuchet MS" font-size="14">COMMANDE</text>
	<text x="188" y="1619.6" fill="#000000" font-family="Trebuchet MS" font-size="14">total</text>
	<line x1="188" y1="1622" x2="220" y2="1622" stroke="#000000" stroke-width="1"/>
	<text x="188" y="1637.6" fill="#000000" font-family="Trebuchet MS" font-size="14">statut</text>
	<text x="188" y="1655.6" fill="#000000" font-family="Trebuchet MS" font-size="14">adresse livraison</text>
</g>

<!-- Entity LIGNE_COMMANDE -->
<g>
	<g>
		<rect x="9" y="1679" width="130" height="26" fill="#FFFFFF" stroke="none" stroke-width="0" opacity="1"/>
		<rect x="9" y="1705" width="130" height="44" fill="#FFFFFF" stroke="none" stroke-width="0" opacity="1"/>
		<rect x="9" y="1679" width="130" height="70" fill="none" stroke="#000000" stroke-width="1.5" opacity="1"/>
		<line x1="9" y1="1705" x2="139" y2="1705" stroke="#000000" stroke-width="1"/>
	</g>
	<text x="15" y="1697.6" fill="#000000" font-family="Trebuchet MS" font-size="14">LIGNE_COMMANDE</text>
	<text x="14" y="1723.6" fill="#000000" font-family="Trebuchet MS" font-size="14">prix ligne</text>
	<line x1="14" y1="1726" x2="75" y2="1726" stroke="#000000" stroke-width="1"/>
	<text x="14" y="1741.6" fill="#000000" font-family="Trebuchet MS" font-size="14">quantité ligne</text>
</g>

<!-- Entity PAIEMENT -->
<g>
	<g>
		<rect x="204" y="1765" width="76" height="26" fill="#FFFFFF" stroke="none" stroke-width="0" opacity="1"/>
		<rect x="204" y="1791" width="76" height="62" fill="#FFFFFF" stroke="none" stroke-width="0" opacity="1"/>
		<rect x="204" y="1765" width="76" height="88" fill="none" stroke="#000000" stroke-width="1.5" opacity="1"/>
		<line x1="204" y1="1791" x2="280" y2="1791" stroke="#000000" stroke-width="1"/>
	</g>
	<text x="210" y="1783.6" fill="#000000" font-family="Trebuchet MS" font-size="14">PAIEMENT</text>
	<text x="209" y="1809.6" fill="#000000" font-family="Trebuchet MS" font-size="14">montant</text>
	<line x1="209" y1="1812" x2="264" y2="1812" stroke="#000000" stroke-width="1"/>
	<text x="209" y="1827.6" fill="#000000" font-family="Trebuchet MS" font-size="14">méthode</text>
	<text x="209" y="1845.6" fill="#000000" font-family="Trebuchet MS" font-size="14">réussi</text>
</g>

<!-- Entity CAROUSEL -->
<g>
	<g>
		<rect x="195" y="1878" width="94" height="26" fill="#FFFFFF" stroke="none" stroke-width="0" opacity="1"/>
		<rect x="195" y="1904" width="94" height="62" fill="#FFFFFF" stroke="none" stroke-width="0" opacity="1"/>
		<rect x="195" y="1878" width="94" height="88" fill="none" stroke="#000000" stroke-width="1.5" opacity="1"/>
		<line x1="195" y1="1904" x2="289" y2="1904" stroke="#000000" stroke-width="1"/>
	</g>
	<text x="209" y="1896.6" fill="#000000" font-family="Trebuchet MS" font-size="14">CAROUSEL</text>
	<text x="200" y="1922.6" fill="#000000" font-family="Trebuchet MS" font-size="14">titre slide</text>
	<line x1="200" y1="1925" x2="264" y2="1925" stroke="#000000" stroke-width="1"/>
	<text x="200" y="1940.6" fill="#000000" font-family="Trebuchet MS" font-size="14">priorité slide</text>
	<text x="200" y="1958.6" fill="#000000" font-family="Trebuchet MS" font-size="14">actif slide</text>
</g>
</svg>