<?xml version="1.0" encoding="UTF-8"?>
<svg width="2308" height="1725" viewBox="0 0 2308 1725" xmlns="http://www.w3.org/2000/svg" font-family="Segoe UI, Verdana">
<rect x="0" y="0" width="2308" height="1725" fill="#ffffff"/>
<line x1="0" y1="435.0" x2="2308" y2="435.0" stroke="#7b5cff" stroke-width="0.5" stroke-dasharray="1,6" opacity="0.25"/>
<line x1="0" y1="705.0" x2="2308" y2="705.0" stroke="#f72585" stroke-width="0.5" stroke-dasharray="1,6" opacity="0.25"/>
<line x1="0" y1="740.0" x2="2308" y2="740.0" stroke="#0a8f6b" stroke-width="0.5" stroke-dasharray="1,6" opacity="0.25"/>
<g class="entity">
<rect x="569.1" y="50.0" width="137.6" height="180.0" fill="#ffffff" stroke="#1f2233" stroke-width="1.6" rx="3"/>
<rect x="569.1" y="50.0" width="137.6" height="30.0" fill="#eef0fb" stroke="#1f2233" stroke-width="1.6" rx="3"/>
<text x="637.9" y="70.0" text-anchor="middle" font-family="Segoe UI, Verdana" font-size="16" font-weight="700" fill="#1f2233">UTILISATEUR</text>
<text x="581.1" y="95.0" font-family="Segoe UI, Verdana" font-size="13" font-weight="700" text-decoration="underline" fill="#3a3d5c">identifiant</text>
<line x1="569.1" y1="95.0" x2="706.7" y2="95.0" stroke="#1f2233" stroke-width="0.8" stroke-dasharray="2,2"/>
<text x="581.1" y="115.0" font-family="Segoe UI, Verdana" font-size="13" font-weight="400" fill="#3a3d5c">nom utilisateur</text>
<text x="581.1" y="135.0" font-family="Segoe UI, Verdana" font-size="13" font-weight="400" fill="#3a3d5c">email</text>
<text x="581.1" y="155.0" font-family="Segoe UI, Verdana" font-size="13" font-weight="400" fill="#3a3d5c">type utilisateur</text>
<text x="581.1" y="175.0" font-family="Segoe UI, Verdana" font-size="13" font-weight="400" fill="#3a3d5c">téléphone</text>
<text x="581.1" y="195.0" font-family="Segoe UI, Verdana" font-size="13" font-weight="400" fill="#3a3d5c">pays</text>
<text x="581.1" y="215.0" font-family="Segoe UI, Verdana" font-size="13" font-weight="400" fill="#3a3d5c">ville</text>
</g>
<g class="entity">
<rect x="50.0" y="300.0" width="135.8" height="80.0" fill="#ffffff" stroke="#1f2233" stroke-width="1.6" rx="3"/>
<rect x="50.0" y="300.0" width="135.8" height="30.0" fill="#eef0fb" stroke="#1f2233" stroke-width="1.6" rx="3"/>
<text x="117.9" y="320.0" text-anchor="middle" font-family="Segoe UI, Verdana" font-size="16" font-weight="700" fill="#1f2233">PROFIL_CLIENT</text>
<text x="62.0" y="345.0" font-family="Segoe UI, Verdana" font-size="13" font-weight="700" text-decoration="underline" fill="#3a3d5c">adresse</text>
<line x1="50.0" y1="345.0" x2="185.8" y2="345.0" stroke="#1f2233" stroke-width="0.8" stroke-dasharray="2,2"/>
<text x="62.0" y="365.0" font-family="Segoe UI, Verdana" font-size="13" font-weight="400" fill="#3a3d5c">points fidélité</text>
</g>
<g class="entity">
<rect x="365.7" y="290.0" width="144.4" height="100.0" fill="#ffffff" stroke="#1f2233" stroke-width="1.6" rx="3"/>
<rect x="365.7" y="290.0" width="144.4" height="30.0" fill="#eef0fb" stroke="#1f2233" stroke-width="1.6" rx="3"/>
<text x="437.9" y="310.0" text-anchor="middle" font-family="Segoe UI, Verdana" font-size="16" font-weight="700" fill="#1f2233">PROFIL_VENDEUR</text>
<text x="377.7" y="335.0" font-family="Segoe UI, Verdana" font-size="13" font-weight="700" text-decoration="underline" fill="#3a3d5c">nom commercial</text>
<line x1="365.7" y1="335.0" x2="510.1" y2="335.0" stroke="#1f2233" stroke-width="0.8" stroke-dasharray="2,2"/>
<text x="377.7" y="355.0" font-family="Segoe UI, Verdana" font-size="13" font-weight="400" fill="#3a3d5c">email pro</text>
<text x="377.7" y="375.0" font-family="Segoe UI, Verdana" font-size="13" font-weight="400" fill="#3a3d5c">vérifié</text>
</g>
<g class="entity">
<rect x="905.6" y="300.0" width="144.7" height="80.0" fill="#ffffff" stroke="#1f2233" stroke-width="1.6" rx="3"/>
<rect x="905.6" y="300.0" width="144.7" height="30.0" fill="#eef0fb" stroke="#1f2233" stroke-width="1.6" rx="3"/>
<text x="977.9" y="320.0" text-anchor="middle" font-family="Segoe UI, Verdana" font-size="16" font-weight="700" fill="#1f2233">PROFIL_ADMIN</text>
<text x="917.6" y="345.0" font-family="Segoe UI, Verdana" font-size="13" font-weight="700" text-decoration="underline" fill="#3a3d5c">gère utilisateurs</text>
<line x1="905.6" y1="345.0" x2="1050.2" y2="345.0" stroke="#1f2233" stroke-width="0.8" stroke-dasharray="2,2"/>
<text x="917.6" y="365.0" font-family="Segoe UI, Verdana" font-size="13" font-weight="400" fill="#3a3d5c">gère paiements</text>
</g>
<g class="entity">
<rect x="205.7" y="795.0" width="123.4" height="120.0" fill="#ffffff" stroke="#1f2233" stroke-width="1.6" rx="3"/>
<rect x="205.7" y="795.0" width="123.4" height="30.0" fill="#eef0fb" stroke="#1f2233" stroke-width="1.6" rx="3"/>
<text x="267.4" y="815.0" text-anchor="middle" font-family="Segoe UI, Verdana" font-size="16" font-weight="700" fill="#1f2233">CATEGORIE</text>
<text x="217.7" y="840.0" font-family="Segoe UI, Verdana" font-size="13" font-weight="700" text-decoration="underline" fill="#3a3d5c">nom catégorie</text>
<line x1="205.7" y1="840.0" x2="329.1" y2="840.0" stroke="#1f2233" stroke-width="0.8" stroke-dasharray="2,2"/>
<text x="217.7" y="860.0" font-family="Segoe UI, Verdana" font-size="13" font-weight="400" fill="#3a3d5c">slug catégorie</text>
<text x="217.7" y="880.0" font-family="Segoe UI, Verdana" font-size="13" font-weight="400" fill="#3a3d5c">actif</text>
<text x="217.7" y="900.0" font-family="Segoe UI, Verdana" font-size="13" font-weight="400" fill="#3a3d5c">quotidien</text>
</g>
<g class="entity">
<rect x="207.4" y="1010.0" width="120.0" height="80.0" fill="#ffffff" stroke="#1f2233" stroke-width="1.6" rx="3"/>
<rect x="207.4" y="1010.0" width="120.0" height="30.0" fill="#eef0fb" stroke="#1f2233" stroke-width="1.6" rx="3"/>
<text x="267.4" y="1030.0" text-anchor="middle" font-family="Segoe UI, Verdana" font-size="16" font-weight="700" fill="#1f2233">COULEUR</text>
<text x="219.4" y="1055.0" font-family="Segoe UI, Verdana" font-size="13" font-weight="700" text-decoration="underline" fill="#3a3d5c">nom couleur</text>
<line x1="207.4" y1="1055.0" x2="327.4" y2="1055.0" stroke="#1f2233" stroke-width="0.8" stroke-dasharray="2,2"/>
<text x="219.4" y="1075.0" font-family="Segoe UI, Verdana" font-size="13" font-weight="400" fill="#3a3d5c">code hexa</text>
</g>
<g class="entity">
<rect x="207.4" y="1185.0" width="120.0" height="60.0" fill="#ffffff" stroke="#1f2233" stroke-width="1.6" rx="3"/>
<rect x="207.4" y="1185.0" width="120.0" height="30.0" fill="#eef0fb" stroke="#1f2233" stroke-width="1.6" rx="3"/>
<text x="267.4" y="1205.0" text-anchor="middle" font-family="Segoe UI, Verdana" font-size="16" font-weight="700" fill="#1f2233">TAILLE</text>
<text x="219.4" y="1230.0" font-family="Segoe UI, Verdana" font-size="13" font-weight="700" text-decoration="underline" fill="#3a3d5c">nom taille</text>
</g>
<g class="entity">
<rect x="577.9" y="485.0" width="120.0" height="180.0" fill="#ffffff" stroke="#1f2233" stroke-width="1.6" rx="3"/>
<rect x="577.9" y="485.0" width="120.0" height="30.0" fill="#eef0fb" stroke="#1f2233" stroke-width="1.6" rx="3"/>
<text x="637.9" y="505.0" text-anchor="middle" font-family="Segoe UI, Verdana" font-size="16" font-weight="700" fill="#1f2233">PRODUIT</text>
<text x="589.9" y="530.0" font-family="Segoe UI, Verdana" font-size="13" font-weight="700" text-decoration="underline" fill="#3a3d5c">titre</text>
<line x1="577.9" y1="530.0" x2="697.9" y2="530.0" stroke="#1f2233" stroke-width="0.8" stroke-dasharray="2,2"/>
<text x="589.9" y="550.0" font-family="Segoe UI, Verdana" font-size="13" font-weight="400" fill="#3a3d5c">slug produit</text>
<text x="589.9" y="570.0" font-family="Segoe UI, Verdana" font-size="13" font-weight="400" fill="#3a3d5c">prix</text>
<text x="589.9" y="590.0" font-family="Segoe UI, Verdana" font-size="13" font-weight="400" fill="#3a3d5c">devise</text>
<text x="589.9" y="610.0" font-family="Segoe UI, Verdana" font-size="13" font-weight="400" fill="#3a3d5c">remise %</text>
<text x="589.9" y="630.0" font-family="Segoe UI, Verdana" font-size="13" font-weight="400" fill="#3a3d5c">stock</text>
<text x="589.9" y="650.0" font-family="Segoe UI, Verdana" font-size="13" font-weight="400" fill="#3a3d5c">approuvé</text>
</g>
<g class="entity">
<rect x="966.5" y="795.0" width="130.5" height="100.0" fill="#ffffff" stroke="#1f2233" stroke-width="1.6" rx="3"/>
<rect x="966.5" y="795.0" width="130.5" height="30.0" fill="#eef0fb" stroke="#1f2233" stroke-width="1.6" rx="3"/>
<text x="1031.8" y="815.0" text-anchor="middle" font-family="Segoe UI, Verdana" font-size="16" font-weight="700" fill="#1f2233">VARIANTE</text>
<text x="978.5" y="840.0" font-family="Segoe UI, Verdana" font-size="13" font-weight="700" text-decoration="underline" fill="#3a3d5c">prix variante</text>
<line x1="966.5" y1="840.0" x2="1097.0" y2="840.0" stroke="#1f2233" stroke-width="0.8" stroke-dasharray="2,2"/>
<text x="978.5" y="860.0" font-family="Segoe UI, Verdana" font-size="13" font-weight="400" fill="#3a3d5c">remise variante</text>
<text x="978.5" y="880.0" font-family="Segoe UI, Verdana" font-size="13" font-weight="400" fill="#3a3d5c">stock variante</text>
</g>
<g class="entity">
<rect x="959.6" y="990.0" width="144.4" height="60.0" fill="#ffffff" stroke="#1f2233" stroke-width="1.6" rx="3"/>
<rect x="959.6" y="990.0" width="144.4" height="30.0" fill="#eef0fb" stroke="#1f2233" stroke-width="1.6" rx="3"/>
<text x="1031.8" y="1010.0" text-anchor="middle" font-family="Segoe UI, Verdana" font-size="16" font-weight="700" fill="#1f2233">IMAGE_VARIANTE</text>
<text x="971.6" y="1035.0" font-family="Segoe UI, Verdana" font-size="13" font-weight="700" text-decoration="underline" fill="#3a3d5c">image variante</text>
</g>
<g class="entity">
<rect x="946.7" y="1145.0" width="170.2" height="80.0" fill="#ffffff" stroke="#1f2233" stroke-width="1.6" rx="3"/>
<rect x="946.7" y="1145.0" width="170.2" height="30.0" fill="#eef0fb" stroke="#1f2233" stroke-width="1.6" rx="3"/>
<text x="1031.8" y="1165.0" text-anchor="middle" font-family="Segoe UI, Verdana" font-size="16" font-weight="700" fill="#1f2233">PRODUIT_NUMERIQUE</text>
<text x="958.7" y="1190.0" font-family="Segoe UI, Verdana" font-size="13" font-weight="700" text-decoration="underline" fill="#3a3d5c">fichier</text>
<line x1="946.7" y1="1190.0" x2="1116.9" y2="1190.0" stroke="#1f2233" stroke-width="0.8" stroke-dasharray="2,2"/>
<text x="958.7" y="1210.0" font-family="Segoe UI, Verdana" font-size="13" font-weight="400" fill="#3a3d5c">clé licence</text>
</g>
<g class="entity">
<rect x="971.8" y="1320.0" width="120.0" height="120.0" fill="#ffffff" stroke="#1f2233" stroke-width="1.6" rx="3"/>
<rect x="971.8" y="1320.0" width="120.0" height="30.0" fill="#eef0fb" stroke="#1f2233" stroke-width="1.6" rx="3"/>
<text x="1031.8" y="1340.0" text-anchor="middle" font-family="Segoe UI, Verdana" font-size="16" font-weight="700" fill="#1f2233">PUBLICITE</text>
<text x="983.8" y="1365.0" font-family="Segoe UI, Verdana" font-size="13" font-weight="700" text-decoration="underline" fill="#3a3d5c">titre pub</text>
<line x1="971.8" y1="1365.0" x2="1091.8" y2="1365.0" stroke="#1f2233" stroke-width="0.8" stroke-dasharray="2,2"/>
<text x="983.8" y="1385.0" font-family="Segoe UI, Verdana" font-size="13" font-weight="400" fill="#3a3d5c">priorité pub</text>
<text x="983.8" y="1405.0" font-family="Segoe UI, Verdana" font-size="13" font-weight="400" fill="#3a3d5c">clics</text>
<text x="983.8" y="1425.0" font-family="Segoe UI, Verdana" font-size="13" font-weight="400" fill="#3a3d5c">vues pub</text>
</g>
<g class="entity">
<rect x="963.9" y="1535.0" width="135.8" height="80.0" fill="#ffffff" stroke="#1f2233" stroke-width="1.6" rx="3"/>
<rect x="963.9" y="1535.0" width="135.8" height="30.0" fill="#eef0fb" stroke="#1f2233" stroke-width="1.6" rx="3"/>
<text x="1031.8" y="1555.0" text-anchor="middle" font-family="Segoe UI, Verdana" font-size="16" font-weight="700" fill="#1f2233">IMAGE_PRODUIT</text>
<text x="975.9" y="1580.0" font-family="Segoe UI, Verdana" font-size="13" font-weight="700" text-decoration="underline" fill="#3a3d5c">image produit</text>
<line x1="963.9" y1="1580.0" x2="1099.7" y2="1580.0" stroke="#1f2233" stroke-width="0.8" stroke-dasharray="2,2"/>
<text x="975.9" y="1600.0" font-family="Segoe UI, Verdana" font-size="13" font-weight="400" fill="#3a3d5c">principale</text>
</g>
<g class="entity">
<rect x="1373.4" y="795.0" width="120.0" height="80.0" fill="#ffffff" stroke="#1f2233" stroke-width="1.6" rx="3"/>
<rect x="1373.4" y="795.0" width="120.0" height="30.0" fill="#eef0fb" stroke="#1f2233" stroke-width="1.6" rx="3"/>
<text x="1433.4" y="815.0" text-anchor="middle" font-family="Segoe UI, Verdana" font-size="16" font-weight="700" fill="#1f2233">AVIS</text>
<text x="1385.4" y="840.0" font-family="Segoe UI, Verdana" font-size="13" font-weight="700" text-decoration="underline" fill="#3a3d5c">note</text>
<line x1="1373.4" y1="840.0" x2="1493.4" y2="840.0" stroke="#1f2233" stroke-width="0.8" stroke-dasharray="2,2"/>
<text x="1385.4" y="860.0" font-family="Segoe UI, Verdana" font-size="13" font-weight="400" fill="#3a3d5c">aimé</text>
</g>
<g class="entity">
<rect x="1361.2" y="970.0" width="144.4" height="60.0" fill="#ffffff" stroke="#1f2233" stroke-width="1.6" rx="3"/>
<rect x="1361.2" y="970.0" width="144.4" height="30.0" fill="#eef0fb" stroke="#1f2233" stroke-width="1.6" rx="3"/>
<text x="1433.4" y="990.0" text-anchor="middle" font-family="Segoe UI, Verdana" font-size="16" font-weight="700" fill="#1f2233">LISTE_SOUHAITS</text>
<text x="1373.2" y="1015.0" font-family="Segoe UI, Verdana" font-size="13" font-weight="700" text-decoration="underline" fill="#3a3d5c">créée le</text>
</g>
<g class="entity">
<rect x="1356.9" y="1125.0" width="153.0" height="60.0" fill="#ffffff" stroke="#1f2233" stroke-width="1.6" rx="3"/>
<rect x="1356.9" y="1125.0" width="153.0" height="30.0" fill="#eef0fb" stroke="#1f2233" stroke-width="1.6" rx="3"/>
<text x="1433.4" y="1145.0" text-anchor="middle" font-family="Segoe UI, Verdana" font-size="16" font-weight="700" fill="#1f2233">ARTICLE_SOUHAIT</text>
<text x="1368.9" y="1170.0" font-family="Segoe UI, Verdana" font-size="13" font-weight="700" text-decoration="underline" fill="#3a3d5c">ajouté le</text>
</g>
<g class="entity">
<rect x="1373.4" y="1280.0" width="120.0" height="60.0" fill="#ffffff" stroke="#1f2233" stroke-width="1.6" rx="3"/>
<rect x="1373.4" y="1280.0" width="120.0" height="30.0" fill="#eef0fb" stroke="#1f2233" stroke-width="1.6" rx="3"/>
<text x="1433.4" y="1300.0" text-anchor="middle" font-family="Segoe UI, Verdana" font-size="16" font-weight="700" fill="#1f2233">VUE_PRODUIT</text>
<text x="1385.4" y="1325.0" font-family="Segoe UI, Verdana" font-size="13" font-weight="700" text-decoration="underline" fill="#3a3d5c">vu le</text>
</g>
<g class="entity">
<rect x="1762.3" y="795.0" width="120.0" height="60.0" fill="#ffffff" stroke="#1f2233" stroke-width="1.6" rx="3"/>
<rect x="1762.3" y="795.0" width="120.0" height="30.0" fill="#eef0fb" stroke="#1f2233" stroke-width="1.6" rx="3"/>
<text x="1822.3" y="815.0" text-anchor="middle" font-family="Segoe UI, Verdana" font-size="16" font-weight="700" fill="#1f2233">PANIER</text>
<text x="1774.3" y="840.0" font-family="Segoe UI, Verdana" font-size="13" font-weight="700" text-decoration="underline" fill="#3a3d5c">créé le</text>
</g>
<g class="entity">
<rect x="1750.1" y="950.0" width="144.4" height="60.0" fill="#ffffff" stroke="#1f2233" stroke-width="1.6" rx="3"/>
<rect x="1750.1" y="950.0" width="144.4" height="30.0" fill="#eef0fb" stroke="#1f2233" stroke-width="1.6" rx="3"/>
<text x="1822.3" y="970.0" text-anchor="middle" font-family="Segoe UI, Verdana" font-size="16" font-weight="700" fill="#1f2233">ARTICLE_PANIER</text>
<text x="1762.1" y="995.0" font-family="Segoe UI, Verdana" font-size="13" font-weight="700" text-decoration="underline" fill="#3a3d5c">quantité panier</text>
</g>
<g class="entity">
<rect x="1749.9" y="1105.0" width="144.7" height="100.0" fill="#ffffff" stroke="#1f2233" stroke-width="1.6" rx="3"/>
<rect x="1749.9" y="1105.0" width="144.7" height="30.0" fill="#eef0fb" stroke="#1f2233" stroke-width="1.6" rx="3"/>
<text x="1822.3" y="1125.0" text-anchor="middle" font-family="Segoe UI, Verdana" font-size="16" font-weight="700" fill="#1f2233">COMMANDE</text>
<text x="1761.9" y="1150.0" font-family="Segoe UI, Verdana" font-size="13" font-weight="700" text-decoration="underline" fill="#3a3d5c">total</text>
<line x1="1749.9" y1="1150.0" x2="1894.6" y2="1150.0" stroke="#1f2233" stroke-width="0.8" stroke-dasharray="2,2"/>
<text x="1761.9" y="1170.0" font-family="Segoe UI, Verdana" font-size="13" font-weight="400" fill="#3a3d5c">statut</text>
<text x="1761.9" y="1190.0" font-family="Segoe UI, Verdana" font-size="13" font-weight="400" fill="#3a3d5c">adresse livraison</text>
</g>
<g class="entity">
<rect x="1750.1" y="1300.0" width="144.4" height="80.0" fill="#ffffff" stroke="#1f2233" stroke-width="1.6" rx="3"/>
<rect x="1750.1" y="1300.0" width="144.4" height="30.0" fill="#eef0fb" stroke="#1f2233" stroke-width="1.6" rx="3"/>
<text x="1822.3" y="1320.0" text-anchor="middle" font-family="Segoe UI, Verdana" font-size="16" font-weight="700" fill="#1f2233">LIGNE_COMMANDE</text>
<text x="1762.1" y="1345.0" font-family="Segoe UI, Verdana" font-size="13" font-weight="700" text-decoration="underline" fill="#3a3d5c">prix ligne</text>
<line x1="1750.1" y1="1345.0" x2="1894.5" y2="1345.0" stroke="#1f2233" stroke-width="0.8" stroke-dasharray="2,2"/>
<text x="1762.1" y="1365.0" font-family="Segoe UI, Verdana" font-size="13" font-weight="400" fill="#3a3d5c">quantité ligne</text>
</g>
<g class="entity">
<rect x="1762.3" y="1475.0" width="120.0" height="100.0" fill="#ffffff" stroke="#1f2233" stroke-width="1.6" rx="3"/>
<rect x="1762.3" y="1475.0" width="120.0" height="30.0" fill="#eef0fb" stroke="#1f2233" stroke-width="1.6" rx="3"/>
<text x="1822.3" y="1495.0" text-anchor="middle" font-family="Segoe UI, Verdana" font-size="16" font-weight="700" fill="#1f2233">PAIEMENT</text>
<text x="1774.3" y="1520.0" font-family="Segoe UI, Verdana" font-size="13" font-weight="700" text-decoration="underline" fill="#3a3d5c">montant</text>
<line x1="1762.3" y1="1520.0" x2="1882.3" y2="1520.0" stroke="#1f2233" stroke-width="0.8" stroke-dasharray="2,2"/>
<text x="1774.3" y="1540.0" font-family="Segoe UI, Verdana" font-size="13" font-weight="400" fill="#3a3d5c">méthode</text>
<text x="1774.3" y="1560.0" font-family="Segoe UI, Verdana" font-size="13" font-weight="400" fill="#3a3d5c">réussi</text>
</g>
<g class="entity">
<rect x="2134.6" y="795.0" width="123.4" height="100.0" fill="#ffffff" stroke="#1f2233" stroke-width="1.6" rx="3"/>
<rect x="2134.6" y="795.0" width="123.4" height="30.0" fill="#eef0fb" stroke="#1f2233" stroke-width="1.6" rx="3"/>
<text x="2196.3" y="815.0" text-anchor="middle" font-family="Segoe UI, Verdana" font-size="16" font-weight="700" fill="#1f2233">CAROUSEL</text>
<text x="2146.6" y="840.0" font-family="Segoe UI, Verdana" font-size="13" font-weight="700" text-decoration="underline" fill="#3a3d5c">titre slide</text>
<line x1="2134.6" y1="840.0" x2="2258.0" y2="840.0" stroke="#1f2233" stroke-width="0.8" stroke-dasharray="2,2"/>
<text x="2146.6" y="860.0" font-family="Segoe UI, Verdana" font-size="13" font-weight="400" fill="#3a3d5c">priorité slide</text>
<text x="2146.6" y="880.0" font-family="Segoe UI, Verdana" font-size="13" font-weight="400" fill="#3a3d5c">actif slide</text>
</g>
<line x1="637.9" y1="230.0" x2="117.9" y2="300.0" stroke="#1f2233" stroke-width="1.4"/>
<g class="assoc"><rect x="317.4" y="250.0" width="121.0" height="30.0" rx="14" fill="#ffffff" stroke="#7b5cff" stroke-width="1.6"/><text x="377.9" y="269.0" text-anchor="middle" font-family="Segoe UI, Verdana" font-size="11.5" font-weight="700" fill="#7b5cff">A_PROFIL_CLIENT</text></g>
<text x="546.9" y="236.2" text-anchor="middle" font-family="Verdana" font-size="13" font-weight="700" fill="#3a3d5c">1,1</text>
<text x="208.9" y="281.8" text-anchor="middle" font-family="Verdana" font-size="13" font-weight="700" fill="#3a3d5c">1,1</text>
<line x1="637.9" y1="230.0" x2="437.9" y2="290.0" stroke="#1f2233" stroke-width="1.4"/>
<g class="assoc"><rect x="474.1" y="245.0" width="127.6" height="30.0" rx="14" fill="#ffffff" stroke="#7b5cff" stroke-width="1.6"/><text x="537.9" y="264.0" text-anchor="middle" font-family="Segoe UI, Verdana" font-size="11.5" font-weight="700" fill="#7b5cff">A_PROFIL_VENDEUR</text></g>
<text x="602.9" y="234.5" text-anchor="middle" font-family="Verdana" font-size="13" font-weight="700" fill="#3a3d5c">1,1</text>
<text x="472.9" y="273.5" text-anchor="middle" font-family="Verdana" font-size="13" font-weight="700" fill="#3a3d5c">1,1</text>
<line x1="637.9" y1="230.0" x2="977.9" y2="300.0" stroke="#1f2233" stroke-width="1.4"/>
<g class="assoc"><rect x="750.7" y="250.0" width="114.4" height="30.0" rx="14" fill="#ffffff" stroke="#7b5cff" stroke-width="1.6"/><text x="807.9" y="269.0" text-anchor="middle" font-family="Segoe UI, Verdana" font-size="11.5" font-weight="700" fill="#7b5cff">A_PROFIL_ADMIN</text></g>
<text x="697.4" y="236.2" text-anchor="middle" font-family="Verdana" font-size="13" font-weight="700" fill="#3a3d5c">1,1</text>
<text x="918.4" y="281.8" text-anchor="middle" font-family="Verdana" font-size="13" font-weight="700" fill="#3a3d5c">1,1</text>
<line x1="637.9" y1="230.0" x2="637.9" y2="485.0" stroke="#f72585" stroke-width="2"/>
<g class="assoc"><rect x="603.8" y="342.5" width="68.2" height="30.0" rx="14" fill="#ffffff" stroke="#f72585" stroke-width="1.6"/><text x="637.9" y="361.5" text-anchor="middle" font-family="Segoe UI, Verdana" font-size="11.5" font-weight="700" fill="#f72585">POSSEDE</text></g>
<text x="675.9" y="244.0" text-anchor="middle" font-family="Verdana" font-size="13" font-weight="700" fill="#3a3d5c">1,1</text>
<text x="675.9" y="475.0" text-anchor="middle" font-family="Verdana" font-size="13" font-weight="700" fill="#3a3d5c">0,N</text>
<path d="M 205.7 829.0 C 135.7 815.0 135.7 895.0 205.7 881.0" fill="none" stroke="#1f2233" stroke-width="1.4"/>
<g class="assoc"><rect x="73.8" y="840.0" width="107.8" height="30.0" rx="14" fill="#ffffff" stroke="#1f2233" stroke-width="1.6"/><text x="127.7" y="859.0" text-anchor="middle" font-family="Segoe UI, Verdana" font-size="11.5" font-weight="700" fill="#1f2233">SE_DECLINE_EN</text></g>
<text x="185.7" y="823.0" text-anchor="end" font-family="Verdana" font-size="13" font-weight="700" fill="#3a3d5c">sous-categorie 0,N</text>
<text x="185.7" y="895.0" text-anchor="end" font-family="Verdana" font-size="13" font-weight="700" fill="#3a3d5c">categorie mere 0,1</text>
<path d="M 637.9 665.0 L 637.9 705.0 L 429.1 705.0 L 429.1 855.0 L 329.1 855.0" fill="none" stroke="#f72585" stroke-width="1.4" opacity="0.85"/>
<g class="assoc"><rect x="381.8" y="833.5" width="94.6" height="30.0" rx="14" fill="#ffffff" stroke="#f72585" stroke-width="1.6"/><text x="429.1" y="852.5" text-anchor="middle" font-family="Segoe UI, Verdana" font-size="11.5" font-weight="700" fill="#f72585">CLASSE_DANS</text></g>
<text x="429.1" y="825.5" text-anchor="middle" font-family="Verdana" font-size="13" font-weight="700" fill="#f72585">0,N</text>
<text x="429.1" y="879.5" text-anchor="middle" font-family="Verdana" font-size="13" font-weight="700" fill="#f72585">0,1</text>
<path d="M 637.9 665.0 L 637.9 705.0 L 866.5 705.0 L 866.5 845.0 L 966.5 845.0" fill="none" stroke="#f72585" stroke-width="1.4" opacity="0.85"/>
<g class="assoc"><rect x="832.4" y="823.5" width="68.2" height="30.0" rx="14" fill="#ffffff" stroke="#f72585" stroke-width="1.6"/><text x="866.5" y="842.5" text-anchor="middle" font-family="Segoe UI, Verdana" font-size="11.5" font-weight="700" fill="#f72585">DECLINE</text></g>
<text x="866.5" y="815.5" text-anchor="middle" font-family="Verdana" font-size="13" font-weight="700" fill="#f72585">1,1</text>
<text x="866.5" y="869.5" text-anchor="middle" font-family="Verdana" font-size="13" font-weight="700" fill="#f72585">1,N</text>
<path d="M 966.5 836.0 L 966.5 740.0 L 427.4 740.0 L 427.4 1050.0 L 327.4 1050.0" fill="none" stroke="#0a8f6b" stroke-width="1.4" opacity="0.85"/>
<g class="assoc"><rect x="393.3" y="1028.5" width="68.2" height="30.0" rx="14" fill="#ffffff" stroke="#0a8f6b" stroke-width="1.6"/><text x="427.4" y="1047.5" text-anchor="middle" font-family="Segoe UI, Verdana" font-size="11.5" font-weight="700" fill="#0a8f6b">COLOREE</text></g>
<text x="427.4" y="1020.5" text-anchor="middle" font-family="Verdana" font-size="13" font-weight="700" fill="#0a8f6b">0,N</text>
<text x="427.4" y="1074.5" text-anchor="middle" font-family="Verdana" font-size="13" font-weight="700" fill="#0a8f6b">0,1</text>
<path d="M 966.5 854.0 L 966.5 740.0 L 427.4 740.0 L 427.4 1215.0 L 327.4 1215.0" fill="none" stroke="#0a8f6b" stroke-width="1.4" opacity="0.85"/>
<g class="assoc"><rect x="393.3" y="1193.5" width="68.2" height="30.0" rx="14" fill="#ffffff" stroke="#0a8f6b" stroke-width="1.6"/><text x="427.4" y="1212.5" text-anchor="middle" font-family="Segoe UI, Verdana" font-size="11.5" font-weight="700" fill="#0a8f6b">TAILLEE</text></g>
<text x="427.4" y="1185.5" text-anchor="middle" font-family="Verdana" font-size="13" font-weight="700" fill="#0a8f6b">0,N</text>
<text x="427.4" y="1239.5" text-anchor="middle" font-family="Verdana" font-size="13" font-weight="700" fill="#0a8f6b">0,1</text>
<line x1="1031.8" y1="895.0" x2="1031.8" y2="990.0" stroke="#1f2233" stroke-width="1.4"/>
<g class="assoc"><rect x="964.7" y="927.5" width="134.2" height="30.0" rx="14" fill="#ffffff" stroke="#1f2233" stroke-width="1.6"/><text x="1031.8" y="946.5" text-anchor="middle" font-family="Segoe UI, Verdana" font-size="11.5" font-weight="700" fill="#1f2233">ILLUSTRE_VARIANTE</text></g>
<text x="1065.8" y="909.0" text-anchor="middle" font-family="Verdana" font-size="13" font-weight="700" fill="#3a3d5c">1,1</text>
<text x="1065.8" y="980.0" text-anchor="middle" font-family="Verdana" font-size="13" font-weight="700" fill="#3a3d5c">1,N</text>
<path d="M 637.9 665.0 L 637.9 705.0 L 846.7 705.0 L 846.7 1185.0 L 946.7 1185.0" fill="none" stroke="#f72585" stroke-width="1.4" opacity="0.85"/>
<g class="assoc"><rect x="786.2" y="1163.5" width="121.0" height="30.0" rx="14" fill="#ffffff" stroke="#f72585" stroke-width="1.6"/><text x="846.7" y="1182.5" text-anchor="middle" font-family="Segoe UI, Verdana" font-size="11.5" font-weight="700" fill="#f72585">EST_VERSION_NUM</text></g>
<text x="846.7" y="1155.5" text-anchor="middle" font-family="Verdana" font-size="13" font-weight="700" fill="#f72585">1,1</text>
<text x="846.7" y="1209.5" text-anchor="middle" font-family="Verdana" font-size="13" font-weight="700" fill="#f72585">1,1</text>
<path d="M 637.9 665.0 L 637.9 705.0 L 871.8 705.0 L 871.8 1380.0 L 971.8 1380.0" fill="none" stroke="#f72585" stroke-width="1.4" opacity="0.85"/>
<g class="assoc"><rect x="837.7" y="1358.5" width="68.2" height="30.0" rx="14" fill="#ffffff" stroke="#f72585" stroke-width="1.6"/><text x="871.8" y="1377.5" text-anchor="middle" font-family="Segoe UI, Verdana" font-size="11.5" font-weight="700" fill="#f72585">PROMEUT</text></g>
<text x="871.8" y="1350.5" text-anchor="middle" font-family="Verdana" font-size="13" font-weight="700" fill="#f72585">1,1</text>
<text x="871.8" y="1404.5" text-anchor="middle" font-family="Verdana" font-size="13" font-weight="700" fill="#f72585">1,N</text>
<path d="M 637.9 665.0 L 637.9 705.0 L 863.9 705.0 L 863.9 1575.0 L 963.9 1575.0" fill="none" stroke="#f72585" stroke-width="1.4" opacity="0.85"/>
<g class="assoc"><rect x="800.1" y="1553.5" width="127.6" height="30.0" rx="14" fill="#ffffff" stroke="#f72585" stroke-width="1.6"/><text x="863.9" y="1572.5" text-anchor="middle" font-family="Segoe UI, Verdana" font-size="11.5" font-weight="700" fill="#f72585">ILLUSTRE_PRODUIT</text></g>
<text x="863.9" y="1545.5" text-anchor="middle" font-family="Verdana" font-size="13" font-weight="700" fill="#f72585">1,1</text>
<text x="863.9" y="1599.5" text-anchor="middle" font-family="Verdana" font-size="13" font-weight="700" fill="#f72585">1,N</text>
<path d="M 637.9 665.0 L 637.9 705.0 L 1273.4 705.0 L 1273.4 835.0 L 1373.4 835.0" fill="none" stroke="#f72585" stroke-width="1.4" opacity="0.85"/>
<g class="assoc"><rect x="1242.6" y="813.5" width="61.6" height="30.0" rx="14" fill="#ffffff" stroke="#f72585" stroke-width="1.6"/><text x="1273.4" y="832.5" text-anchor="middle" font-family="Segoe UI, Verdana" font-size="11.5" font-weight="700" fill="#f72585">EVALUE</text></g>
<text x="1273.4" y="805.5" text-anchor="middle" font-family="Verdana" font-size="13" font-weight="700" fill="#f72585">1,1</text>
<text x="1273.4" y="859.5" text-anchor="middle" font-family="Verdana" font-size="13" font-weight="700" fill="#f72585">0,N</text>
<path d="M 637.9 230.0 L 637.9 435.0 L 1273.4 435.0 L 1273.4 835.0 L 1373.4 835.0" fill="none" stroke="#7b5cff" stroke-width="1.4" opacity="0.85"/>
<g class="assoc"><rect x="1242.6" y="813.5" width="61.6" height="30.0" rx="14" fill="#ffffff" stroke="#7b5cff" stroke-width="1.6"/><text x="1273.4" y="832.5" text-anchor="middle" font-family="Segoe UI, Verdana" font-size="11.5" font-weight="700" fill="#7b5cff">REDIGE</text></g>
<text x="1273.4" y="805.5" text-anchor="middle" font-family="Verdana" font-size="13" font-weight="700" fill="#7b5cff">1,1</text>
<text x="1273.4" y="859.5" text-anchor="middle" font-family="Verdana" font-size="13" font-weight="700" fill="#7b5cff">0,N</text>
<path d="M 637.9 230.0 L 637.9 435.0 L 1261.2 435.0 L 1261.2 1000.0 L 1361.2 1000.0" fill="none" stroke="#7b5cff" stroke-width="1.4" opacity="0.85"/>
<g class="assoc"><rect x="1217.2" y="978.5" width="88.0" height="30.0" rx="14" fill="#ffffff" stroke="#7b5cff" stroke-width="1.6"/><text x="1261.2" y="997.5" text-anchor="middle" font-family="Segoe UI, Verdana" font-size="11.5" font-weight="700" fill="#7b5cff">A_WISHLIST</text></g>
<text x="1261.2" y="970.5" text-anchor="middle" font-family="Verdana" font-size="13" font-weight="700" fill="#7b5cff">1,1</text>
<text x="1261.2" y="1024.5" text-anchor="middle" font-family="Verdana" font-size="13" font-weight="700" fill="#7b5cff">1,1</text>
<line x1="1433.4" y1="1030.0" x2="1433.4" y2="1125.0" stroke="#1f2233" stroke-width="1.4"/>
<g class="assoc"><rect x="1369.6" y="1062.5" width="127.6" height="30.0" rx="14" fill="#ffffff" stroke="#1f2233" stroke-width="1.6"/><text x="1433.4" y="1081.5" text-anchor="middle" font-family="Segoe UI, Verdana" font-size="11.5" font-weight="700" fill="#1f2233">CONTIENT_SOUHAIT</text></g>
<text x="1467.4" y="1044.0" text-anchor="middle" font-family="Verdana" font-size="13" font-weight="700" fill="#3a3d5c">1,1</text>
<text x="1467.4" y="1115.0" text-anchor="middle" font-family="Verdana" font-size="13" font-weight="700" fill="#3a3d5c">0,N</text>
<path d="M 637.9 665.0 L 637.9 705.0 L 1256.9 705.0 L 1256.9 1155.0 L 1356.9 1155.0" fill="none" stroke="#f72585" stroke-width="1.4" opacity="0.85"/>
<g class="assoc"><rect x="1219.5" y="1133.5" width="74.8" height="30.0" rx="14" fill="#ffffff" stroke="#f72585" stroke-width="1.6"/><text x="1256.9" y="1152.5" text-anchor="middle" font-family="Segoe UI, Verdana" font-size="11.5" font-weight="700" fill="#f72585">SOUHAITE</text></g>
<text x="1256.9" y="1125.5" text-anchor="middle" font-family="Verdana" font-size="13" font-weight="700" fill="#f72585">1,1</text>
<text x="1256.9" y="1179.5" text-anchor="middle" font-family="Verdana" font-size="13" font-weight="700" fill="#f72585">0,N</text>
<path d="M 637.9 230.0 L 637.9 435.0 L 1273.4 435.0 L 1273.4 1310.0 L 1373.4 1310.0" fill="none" stroke="#7b5cff" stroke-width="1.4" opacity="0.85"/>
<g class="assoc"><rect x="1236.0" y="1288.5" width="74.8" height="30.0" rx="14" fill="#ffffff" stroke="#7b5cff" stroke-width="1.6"/><text x="1273.4" y="1307.5" text-anchor="middle" font-family="Segoe UI, Verdana" font-size="11.5" font-weight="700" fill="#7b5cff">CONSULTE</text></g>
<text x="1273.4" y="1280.5" text-anchor="middle" font-family="Verdana" font-size="13" font-weight="700" fill="#7b5cff">1,1</text>
<text x="1273.4" y="1334.5" text-anchor="middle" font-family="Verdana" font-size="13" font-weight="700" fill="#7b5cff">0,N</text>
<path d="M 637.9 665.0 L 637.9 705.0 L 1273.4 705.0 L 1273.4 1310.0 L 1373.4 1310.0" fill="none" stroke="#f72585" stroke-width="1.4" opacity="0.85"/>
<g class="assoc"><rect x="1222.8" y="1288.5" width="101.2" height="30.0" rx="14" fill="#ffffff" stroke="#f72585" stroke-width="1.6"/><text x="1273.4" y="1307.5" text-anchor="middle" font-family="Segoe UI, Verdana" font-size="11.5" font-weight="700" fill="#f72585">EST_CONSULTE</text></g>
<text x="1273.4" y="1280.5" text-anchor="middle" font-family="Verdana" font-size="13" font-weight="700" fill="#f72585">1,1</text>
<text x="1273.4" y="1334.5" text-anchor="middle" font-family="Verdana" font-size="13" font-weight="700" fill="#f72585">0,N</text>
<path d="M 637.9 230.0 L 637.9 435.0 L 1662.3 435.0 L 1662.3 825.0 L 1762.3 825.0" fill="none" stroke="#7b5cff" stroke-width="1.4" opacity="0.85"/>
<g class="assoc"><rect x="1624.9" y="803.5" width="74.8" height="30.0" rx="14" fill="#ffffff" stroke="#7b5cff" stroke-width="1.6"/><text x="1662.3" y="822.5" text-anchor="middle" font-family="Segoe UI, Verdana" font-size="11.5" font-weight="700" fill="#7b5cff">A_PANIER</text></g>
<text x="1662.3" y="795.5" text-anchor="middle" font-family="Verdana" font-size="13" font-weight="700" fill="#7b5cff">0,1</text>
<text x="1662.3" y="849.5" text-anchor="middle" font-family="Verdana" font-size="13" font-weight="700" fill="#7b5cff">0,N</text>
<line x1="1822.3" y1="855.0" x2="1822.3" y2="950.0" stroke="#1f2233" stroke-width="1.4"/>
<g class="assoc"><rect x="1775.0" y="887.5" width="94.6" height="30.0" rx="14" fill="#ffffff" stroke="#1f2233" stroke-width="1.6"/><text x="1822.3" y="906.5" text-anchor="middle" font-family="Segoe UI, Verdana" font-size="11.5" font-weight="700" fill="#1f2233">DANS_PANIER</text></g>
<text x="1856.3" y="869.0" text-anchor="middle" font-family="Verdana" font-size="13" font-weight="700" fill="#3a3d5c">1,1</text>
<text x="1856.3" y="940.0" text-anchor="middle" font-family="Verdana" font-size="13" font-weight="700" fill="#3a3d5c">0,N</text>
<path d="M 637.9 665.0 L 637.9 705.0 L 1650.1 705.0 L 1650.1 980.0 L 1750.1 980.0" fill="none" stroke="#f72585" stroke-width="1.4" opacity="0.85"/>
<g class="assoc"><rect x="1586.3" y="958.5" width="127.6" height="30.0" rx="14" fill="#ffffff" stroke="#f72585" stroke-width="1.6"/><text x="1650.1" y="977.5" text-anchor="middle" font-family="Segoe UI, Verdana" font-size="11.5" font-weight="700" fill="#f72585">AJOUTE_AU_PANIER</text></g>
<text x="1650.1" y="950.5" text-anchor="middle" font-family="Verdana" font-size="13" font-weight="700" fill="#f72585">1,1</text>
<text x="1650.1" y="1004.5" text-anchor="middle" font-family="Verdana" font-size="13" font-weight="700" fill="#f72585">0,N</text>
<path d="M 637.9 230.0 L 637.9 435.0 L 1649.9 435.0 L 1649.9 1155.0 L 1749.9 1155.0" fill="none" stroke="#7b5cff" stroke-width="1.4" opacity="0.85"/>
<g class="assoc"><rect x="1622.4" y="1133.5" width="55.0" height="30.0" rx="14" fill="#ffffff" stroke="#7b5cff" stroke-width="1.6"/><text x="1649.9" y="1152.5" text-anchor="middle" font-family="Segoe UI, Verdana" font-size="11.5" font-weight="700" fill="#7b5cff">PASSE</text></g>
<text x="1649.9" y="1125.5" text-anchor="middle" font-family="Verdana" font-size="13" font-weight="700" fill="#7b5cff">0,1</text>
<text x="1649.9" y="1179.5" text-anchor="middle" font-family="Verdana" font-size="13" font-weight="700" fill="#7b5cff">0,N</text>
<line x1="1822.3" y1="1205.0" x2="1822.3" y2="1300.0" stroke="#1f2233" stroke-width="1.4"/>
<g class="assoc"><rect x="1768.4" y="1237.5" width="107.8" height="30.0" rx="14" fill="#ffffff" stroke="#1f2233" stroke-width="1.6"/><text x="1822.3" y="1256.5" text-anchor="middle" font-family="Segoe UI, Verdana" font-size="11.5" font-weight="700" fill="#1f2233">DANS_COMMANDE</text></g>
<text x="1856.3" y="1219.0" text-anchor="middle" font-family="Verdana" font-size="13" font-weight="700" fill="#3a3d5c">1,1</text>
<text x="1856.3" y="1290.0" text-anchor="middle" font-family="Verdana" font-size="13" font-weight="700" fill="#3a3d5c">0,N</text>
<path d="M 637.9 665.0 L 637.9 705.0 L 1650.1 705.0 L 1650.1 1340.0 L 1750.1 1340.0" fill="none" stroke="#f72585" stroke-width="1.4" opacity="0.85"/>
<g class="assoc"><rect x="1592.9" y="1318.5" width="114.4" height="30.0" rx="14" fill="#ffffff" stroke="#f72585" stroke-width="1.6"/><text x="1650.1" y="1337.5" text-anchor="middle" font-family="Segoe UI, Verdana" font-size="11.5" font-weight="700" fill="#f72585">REFERE_PRODUIT</text></g>
<text x="1650.1" y="1310.5" text-anchor="middle" font-family="Verdana" font-size="13" font-weight="700" fill="#f72585">0,1</text>
<text x="1650.1" y="1364.5" text-anchor="middle" font-family="Verdana" font-size="13" font-weight="700" fill="#f72585">0,N</text>
<path d="M 637.9 230.0 L 637.9 435.0 L 1662.3 435.0 L 1662.3 1525.0 L 1762.3 1525.0" fill="none" stroke="#7b5cff" stroke-width="1.4" opacity="0.85"/>
<g class="assoc"><rect x="1634.8" y="1503.5" width="55.0" height="30.0" rx="14" fill="#ffffff" stroke="#7b5cff" stroke-width="1.6"/><text x="1662.3" y="1522.5" text-anchor="middle" font-family="Segoe UI, Verdana" font-size="11.5" font-weight="700" fill="#7b5cff">REGLE</text></g>
<text x="1662.3" y="1495.5" text-anchor="middle" font-family="Verdana" font-size="13" font-weight="700" fill="#7b5cff">0,1</text>
<text x="1662.3" y="1549.5" text-anchor="middle" font-family="Verdana" font-size="13" font-weight="700" fill="#7b5cff">0,N</text>
<g font-family="Segoe UI, Verdana" font-size="13">
<line x1="50.0" y1="1645.0" x2="84.0" y2="1645.0" stroke="#7b5cff" stroke-width="2.4"/>
<text x="94.0" y="1649.0" fill="#3a3d5c">Bus UTILISATEUR (relations distantes)</text>
<line x1="50.0" y1="1669.0" x2="84.0" y2="1669.0" stroke="#f72585" stroke-width="2.4"/>
<text x="94.0" y="1673.0" fill="#3a3d5c">Bus PRODUIT (relations distantes)</text>
<line x1="50.0" y1="1693.0" x2="84.0" y2="1693.0" stroke="#0a8f6b" stroke-width="2.4"/>
<text x="94.0" y="1697.0" fill="#3a3d5c">Relation laterale (VARIANTE - couleur/taille)</text>
<line x1="50.0" y1="1717.0" x2="84.0" y2="1717.0" stroke="#1f2233" stroke-width="2.4"/>
<text x="94.0" y="1721.0" fill="#3a3d5c">Relation locale (entites voisines)</text>
</g>
<text x="50.0" y="1631.0" font-size="12" fill="#8d92bd">23 entites - 27 associations - genere depuis mcd/zandomarketplace.mcd</text>
</svg>